<svg xmlns="http://www.w3.org/2000/svg" viewBox="0 0 100 100" x="0px" y="0px" eenable-background="new 0 0 100 100" xml:space="preserve"><title>Love, target, valentine, heart, romance, hunting, goal</title><g><path d="M56.835,26.3994A13.5576,13.5576,0,0,0,44,29.9033a13.5576,13.5576,0,0,0-12.835-3.5039C20.6736,28.977,17.5029,42.2408,25.498,49.5146L43.3271,65.7393a.9988.9988,0,0,0,1.3458,0L62.502,49.5146C70.492,42.2436,67.332,28.9784,56.835,26.3994Zm4.3213,21.6367L44,63.6475,26.8438,48.0361c-6.8183-6.2066-4.1294-17.5014,4.7988-19.6943a11.58,11.58,0,0,1,11.0635,3.0947l.5849.5879a1.03,1.03,0,0,0,1.418,0l.5849-.5879a11.4865,11.4865,0,1,1,15.8624,16.6ZM35.4648,31a.9994.9994,0,0,1-1,1,7.2782,7.2782,0,0,0-7.0966,5.1152,1,1,0,0,1-1.91-.5918A9.2475,9.2475,0,0,1,34.4648,30,.9994.9994,0,0,1,35.4648,31ZM86,43H81.9746A38.0315,38.0315,0,0,0,45,6.0254V2a1,1,0,0,0-2,0V6.0254A38.0315,38.0315,0,0,0,6.0254,43H2a1,1,0,0,0,0,2H6.0254A38.0315,38.0315,0,0,0,43,81.9746V86a1,1,0,0,0,2,0V81.9746A38.0315,38.0315,0,0,0,81.9746,45H86a1,1,0,0,0,0-2Zm-6.0254,0h-3A33.0282,33.0282,0,0,0,45,11.0254v-3A36.03,36.03,0,0,1,79.9746,43ZM44,75A31,31,0,1,1,75,44,31.0347,31.0347,0,0,1,44,75ZM43,8.0254v3A33.0282,33.0282,0,0,0,11.0254,43h-3A36.03,36.03,0,0,1,43,8.0254ZM8.0254,45h3A33.0282,33.0282,0,0,0,43,76.9746v3A36.03,36.03,0,0,1,8.0254,45ZM45,79.9746v-3A33.0282,33.0282,0,0,0,76.9746,45h3A36.03,36.03,0,0,1,45,79.9746Z" fill="#92C7CE"/></g><text x="0" y="100" fill="#0E0A4D" font-size="5px" font-weight="bold" font-family="'Helvetica Neue', Helvetica, Arial-Unicode, Arial, Sans-serif">Created by Kmg Design</text><text x="0" y="100" fill="#000000" font-size="5px" font-weight="bold" font-family="'Helvetica Neue', Helvetica, Arial-Unicode, Arial, Sans-serif">from the Noun Project</text></svg>