<?xml version="1.0" encoding="utf-8"?>
<!-- Generator: Adobe Illustrator 24.1.0, SVG Export Plug-In . SVG Version: 6.00 Build 0)  -->
<svg version="1.1" id="Layer_1" xmlns="http://www.w3.org/2000/svg" xmlns:xlink="http://www.w3.org/1999/xlink" x="0px" y="0px"
	 viewBox="0 0 1080 1080" style="enable-background:new 0 0 1080 1080;" xml:space="preserve">
<style type="text/css">
	.st0{clip-path:url(#SVGID_2_);}
	.st1{clip-path:url(#SVGID_4_);fill:#FF3D3D;}
	.st2{clip-path:url(#SVGID_6_);}
	.st3{clip-path:url(#SVGID_8_);fill:#150B78;}
	.st4{clip-path:url(#SVGID_10_);}
	.st5{clip-path:url(#SVGID_12_);fill:#150B78;}
	.st6{clip-path:url(#SVGID_14_);}
	.st7{clip-path:url(#SVGID_16_);fill:#150B78;}
	.st8{clip-path:url(#SVGID_18_);}
	.st9{clip-path:url(#SVGID_20_);fill:#0E0A4D;}
	.st10{clip-path:url(#SVGID_22_);}
	.st11{clip-path:url(#SVGID_24_);fill:#150B78;}
	.st12{clip-path:url(#SVGID_26_);}
	.st13{clip-path:url(#SVGID_28_);fill:#150B78;}
	.st14{clip-path:url(#SVGID_30_);}
	.st15{clip-path:url(#SVGID_32_);fill:#0E0A4D;}
	.st16{clip-path:url(#SVGID_34_);}
	.st17{clip-path:url(#SVGID_36_);fill:#FF3D3D;}
	.st18{clip-path:url(#SVGID_38_);}
	.st19{clip-path:url(#SVGID_40_);fill:#FF3D3D;}
	.st20{clip-path:url(#SVGID_42_);}
	.st21{clip-path:url(#SVGID_44_);fill:#150B78;}
	.st22{clip-path:url(#SVGID_46_);}
	.st23{clip-path:url(#SVGID_48_);fill:#150B78;}
	.st24{clip-path:url(#SVGID_50_);}
	.st25{clip-path:url(#SVGID_52_);fill:#150B78;}
	.st26{clip-path:url(#SVGID_54_);}
	.st27{clip-path:url(#SVGID_56_);fill:#0E0A4D;}
	.st28{clip-path:url(#SVGID_58_);}
	.st29{clip-path:url(#SVGID_60_);fill:#150B78;}
	.st30{clip-path:url(#SVGID_62_);}
	.st31{clip-path:url(#SVGID_64_);fill:#150B78;}
	.st32{clip-path:url(#SVGID_66_);}
	.st33{clip-path:url(#SVGID_68_);fill:#0E0A4D;}
	.st34{clip-path:url(#SVGID_70_);}
	.st35{clip-path:url(#SVGID_72_);fill:#FF3D3D;}
</style>
<g>
	<defs>
		<path id="SVGID_1_" d="M892.58,820.23h6.14v6.01c2.04-2.72,3.1-3.94,3.07-6.01c2.68,0.42,4.13,0,6.14,0c0.68,0,1.85,0.28,3.07,0
			l-3.07,9.02c-0.62-1.7-1.45-1.94-3.07-3.01c-0.36,1.07-1.48,1.85-3.07,3.01c-0.24,1.91-0.69,4.94,0,9.02v3.01v12.03h-9.21V820.23z
			 M877.24,832.26c-0.56-1.78-1.67-3.23-3.07-3.01c-1.9-2.45-3.82-3.01-6.14-3.01c-2.23,0-4.31,0.63-6.14,3.01
			c-1.08-0.35-2.11,1.03-3.07,3.01H877.24z M883.38,838.27h-24.55c-1.03,3.02-0.03,4.8,3.07,6.02c0.15,1.42,2.23,2.08,6.14,3.01
			c1.63-0.93,4.22-1.96,6.14-3.01l6.14,3.01c-0.78,1.45-2.81,3.2-6.14,3.01c-1.41,2.45-4.21,3.01-6.14,3.01
			c-6.37,0-10.48-1.56-12.28-6.02c-4.55-1.77-6.14-5.67-6.14-9.02c0-6.13,1.58-10.11,6.14-12.03c1.77-4.43,5.74-6.01,9.21-6.01
			c6.36,0,10.48,1.58,12.28,6.01C881.79,828.16,883.38,832.35,883.38,838.27z M828.13,808.2h9.21v12.03h6.14v6.01h-6.14v27.07h-9.21
			v-27.07h-3.07v-6.01h3.07V808.2z M800.5,829.25c-2.62,0-4.82,0.82-6.14,3.01c-2.19,1.11-3.07,3.27-3.07,6.01
			c0,2.64,0.88,4.84,3.07,6.02c1.32,2.17,3.52,3.01,6.14,3.01c2.63,0,4.8-0.85,6.14-3.01c2.19-1.25,3.07-3.43,3.07-6.02
			c0-2.68-0.87-4.83-3.07-6.01C805.38,830.09,803.19,829.25,800.5,829.25z M791.3,820.23v3.01c0.4-0.06,2-1.17,3.07-3.01
			c2.37,0.37,4.2,0,6.14,0c4.28,0,7.9,1.6,12.28,6.01c1.58,1.98,3.07,6.08,3.07,12.03c0,3.89-1.54,7.93-6.14,12.03
			c-1.56,2.39-5.21,4.01-9.21,3.01c-2.09,1-3.84,0.67-6.14,0c-0.94-0.66-2.55-1.75-3.07-3.01v15.04h-9.21v-45.11H791.3z
			 M754.46,829.25c-2.7,0-4.87,0.84-6.14,3.01c-2.2,1.18-3.07,3.33-3.07,6.01c0,2.59,0.88,4.76,3.07,6.02
			c1.34,2.16,3.51,3.01,6.14,3.01c2.62,0,4.82-0.84,6.14-3.01c2.19-1.18,3.07-3.38,3.07-6.02c0-2.74-0.88-4.9-3.07-6.01
			C759.29,830.08,757.07,829.25,754.46,829.25z M760.6,820.23h9.21v33.08h-9.21v-3.01c-0.55,0.34-2.15,1.4-3.07,3.01
			c-2.3-0.33-4.04,0-6.14,0c-4,0-7.65-1.57-9.21-6.02c-4.6-1.86-6.14-5.78-6.14-9.02c0-6.3,1.49-10.28,3.07-12.03
			c4.38-4.46,7.99-6.01,12.28-6.01c1.93,0,3.77,0.36,6.14,0c1.07,1.78,2.66,2.85,3.07,3.01V820.23z M696.15,808.2h9.21v15.03
			c0.09-0.56,1.62-1.59,3.07-3.01c1.65,0.04,3.22-0.3,6.14,0c1.76-0.3,4.36,0.82,6.14,3.01c2.16,1.97,3.07,4.82,3.07,9.02v21.05
			h-9.21v-15.04c1.5-3,1.33-5.55,0-6.01c0.64-2.21,0.05-3.21,0-3.01c-1.61-1.52-2.64-1.85-3.07-3.01c-2.38,1.17-3.74,1.71-6.14,3.01
			c0.13,0.89-0.66,2.39,0,3.01c-1.33,2.25-1.44,4.49,0,9.02v12.03h-9.21V808.2z M683.87,817.22l-6.14,6.01
			c-3.79-5.04-8.32-7.1-12.28-6.01c-5.31-1.09-8.88,0.32-12.28,3.01c-2.41,2.92-3.86,6.37-3.07,9.02c-0.79,4.32-0.15,6.86,0,9.02
			c2.42,2.28,4.24,4.02,6.14,6.02c2.81,0.54,5.42,1.17,9.21,0c1.54,1.17,3.78,0.73,6.14,0c1.7-1.05,3.93-2.65,6.14-6.02l6.14,6.02
			c-3.46,3.88-6.55,6.03-9.21,6.01c-3.18,2.41-6.5,3.01-9.21,3.01c-7.93,0-13.57-2.12-18.42-6.02c-3.94-4.56-6.14-9.99-6.14-18.04
			c0-2.85,1-6.66,3.07-9.02c1.93-4.29,4.8-6.97,9.21-9.02c3.05-2,7.06-3.01,12.28-3.01c2.75,0,6.27,0.75,9.21,3.01
			C678.5,811.95,681.42,814.07,683.87,817.22z M576.44,820.23h9.21l6.14,21.05l9.21-21.05h9.21l-21.49,45.11h-6.14l6.14-15.04
			L576.44,820.23z M558.03,808.2h9.21v12.03h6.14v6.01h-6.14v27.07h-9.21v-27.07h-3.07v-6.01h3.07V808.2z M536.54,820.23h9.21v33.08
			h-9.21V820.23z M539.61,808.2c2.79,0,3.87,0.44,6.14,0c-0.45,2.21,0,3.28,0,6.01c0-0.23-0.45,0.82,0,3.01
			c-2.24-0.44-3.32,0-3.07,0c-2.78,0-3.87-0.45-6.14,0c0.45-2.23,0-3.32,0-6.02c0,0.21,0.45-0.84,0-3.01
			C538.78,808.63,539.87,808.2,539.61,808.2z M527.33,817.22l-6.14,6.01c-3.79-5.04-8.32-7.1-12.28-6.01
			c-5.31-1.09-8.88,0.32-12.28,3.01c-2.41,2.92-3.86,6.37-3.07,9.02c-0.79,4.32-0.15,6.86,0,9.02c2.42,2.28,4.24,4.02,6.14,6.02
			c2.81,0.54,5.42,1.17,9.21,0c1.54,1.17,3.78,0.73,6.14,0c1.7-1.05,3.93-2.65,6.14-6.02l6.14,6.02c-3.46,3.88-6.55,6.03-9.21,6.01
			c-3.18,2.41-6.5,3.01-9.21,3.01c-7.93,0-13.57-2.12-18.42-6.02c-3.94-4.56-6.14-9.99-6.14-18.04c0-2.85,1-6.66,3.07-9.02
			c1.93-4.29,4.8-6.97,9.21-9.02c3.05-2,7.06-3.01,12.28-3.01c2.75,0,6.27,0.75,9.21,3.01
			C521.96,811.95,524.88,814.07,527.33,817.22z M422.98,808.2h9.21v27.06l12.28-15.03h9.21l-12.28,15.03l15.35,18.05h-9.21
			l-15.35-15.04v15.04h-9.21V808.2z M398.42,820.23h6.14v6.01c2.04-2.72,3.1-3.94,3.07-6.01c2.68,0.42,4.13,0,6.14,0
			c0.68,0,1.85,0.28,3.07,0l-3.07,9.02c-0.62-1.7-1.45-1.94-3.07-3.01c-0.36,1.07-1.48,1.85-3.07,3.01c-0.24,1.91-0.69,4.94,0,9.02
			v3.01v12.03h-9.21V820.23z M370.8,829.25c-2.64,0-4.83,0.84-6.14,3.01c-2.19,1.2-3.07,3.35-3.07,6.01c0,2.66,0.86,4.84,3.07,6.02
			c1.25,2.17,3.44,3.01,6.14,3.01c2.6,0,4.81-0.85,6.14-3.01c2.19-1.22,3.07-3.4,3.07-6.02c0-2.7-0.86-4.86-3.07-6.01
			C375.68,830.08,373.47,829.25,370.8,829.25z M370.8,820.23c4.38,0,7.24,0.74,9.21,3.01c3.37,0.7,5.46,2.72,6.14,6.02
			c2.32,1.79,3.07,4.54,3.07,6.01c0,4.44-0.75,7.22-3.07,9.02c-0.7,3.37-2.76,5.38-6.14,6.01c-1.83,2.29-4.7,3.01-9.21,3.01
			c-3.24,0-7.18-1.61-9.21-6.02c-4.51-2.01-6.14-5.91-6.14-9.02c0-6.39,1.84-10.49,6.14-15.04
			C364.22,821.65,367.94,820.23,370.8,820.23z M309.41,811.2h9.21l9.21,15.04l6.14-15.04h9.21l-12.28,24.06v18.05h-9.21v-18.05
			L309.41,811.2z M232.68,820.23h9.21l6.14,18.04l6.14-18.04h6.14l6.14,18.04l6.14-18.04h9.21l-12.28,33.08h-6.14l-6.14-18.05
			l-6.14,18.05h-6.14L232.68,820.23z M217.33,832.26c-0.56-1.78-1.67-3.23-3.07-3.01c-1.9-2.45-3.82-3.01-6.14-3.01
			c-2.23,0-4.3,0.63-6.14,3.01c-1.08-0.35-2.11,1.03-3.07,3.01H217.33z M226.54,838.27h-24.55c-1.03,3.02-0.03,4.8,3.07,6.02
			c0.15,1.42,2.23,2.08,6.14,3.01c1.63-0.93,4.22-1.96,6.14-3.01l6.14,3.01c-0.78,1.45-2.81,3.2-6.14,3.01
			c-1.41,2.45-4.21,3.01-6.14,3.01c-6.37,0-10.48-1.56-12.28-6.02c-4.55-1.77-6.14-5.67-6.14-9.02c0-6.13,1.58-10.11,6.14-12.03
			c1.77-4.43,5.74-6.01,9.21-6.01c6.36,0,10.48,1.58,12.28,6.01C224.95,828.16,226.54,832.35,226.54,838.27z M143.67,811.2h9.21
			l18.42,27.07V811.2h9.21v42.11h-9.21l-18.42-27.07v27.07h-9.21V811.2z"/>
	</defs>
	<clipPath id="SVGID_2_">
		<use xlink:href="#SVGID_1_"  style="overflow:visible;"/>
	</clipPath>
	<g class="st0">
		<defs>
			<rect id="SVGID_3_" x="-1287.09" y="39.07" width="10231.11" height="16801.4"/>
		</defs>
		<clipPath id="SVGID_4_">
			<use xlink:href="#SVGID_3_"  style="overflow:visible;"/>
		</clipPath>
		<rect x="103.7" y="768.23" class="st1" width="847.26" height="137.07"/>
	</g>
</g>
<g>
	<defs>
		<path id="SVGID_5_" d="M143.67,769.73c0.45,0.02,0.86-0.08,1.08-0.51c0.36-0.68,0.73-1.36,1.02-2.07c0.95-2.29,1.91-4.58,2.79-6.9
			c3.42-8.95,6.81-17.92,10.24-26.87c8.27-21.66,16.55-43.33,24.84-64.99c0.34-0.88,0.68-1.76,1.1-2.6
			c0.45-0.89,1.18-1.45,2.21-1.52c0.59-0.04,1.19-0.06,1.78-0.06c4.52,0.01,9.03,0.02,13.55,0.04c0.68,0,1.36,0.01,2.04,0.02
			c0.96,0.02,1.59,0.53,1.96,1.39c0.24,0.54,0.45,1.1,0.66,1.66c12.1,31.66,24.2,63.31,36.29,94.97c0.76,2,1.53,4,2.28,5.99
			c0.21,0.56,0.37,1.13,0.55,1.71c0.06,0.21-0.17,0.56-0.37,0.57c-0.42,0.03-0.84,0.1-1.27,0.1c-5.62,0.01-11.25,0.01-16.87,0.01
			c-0.43,0-0.85-0.02-1.28-0.06c-0.36-0.04-0.64-0.25-0.8-0.56c-0.2-0.38-0.36-0.78-0.51-1.17c-2.03-5.37-4.05-10.73-6.08-16.1
			c-0.3-0.8-0.61-1.6-0.93-2.39c-0.38-0.98-1.14-1.48-2.13-1.62c-0.59-0.08-1.19-0.1-1.78-0.1c-2.13,0-4.26,0.02-6.39,0.02
			c-9.88-0.01-19.77-0.02-29.65-0.02c-0.77,0-1.54-0.02-2.3,0.06c-1.19,0.13-2.07,0.72-2.52,1.89c-0.18,0.48-0.37,0.95-0.56,1.43
			c-2.05,5.27-4.1,10.53-6.16,15.79c-0.22,0.56-0.45,1.11-0.75,1.63c-0.4,0.7-1.03,1.14-1.86,1.18c-0.77,0.02-1.53,0.02-2.3,0.02
			c-5.37,0-10.74-0.02-16.1-0.01c-0.6,0-1.19,0.05-1.79,0.08V769.73z M195.9,729.08c3.49,0,6.97,0.01,10.46,0
			c0.76,0,1.53-0.02,2.29-0.06c0.63-0.02,0.97-0.47,0.79-1.01c-0.22-0.65-0.46-1.29-0.7-1.93c-1.72-4.46-3.44-8.93-5.17-13.39
			c-2.25-5.82-4.49-11.64-6.75-17.45c-0.25-0.63-0.57-1.23-0.87-1.84c-0.1-0.21-0.54-0.22-0.63-0.03c-0.35,0.78-0.74,1.53-1.05,2.33
			c-1.9,4.85-3.78,9.71-5.66,14.57c-1.98,5.09-3.97,10.19-5.95,15.28c-0.25,0.64-0.49,1.28-0.69,1.93c-0.24,0.74,0.19,1.44,0.93,1.5
			c0.76,0.06,1.53,0.09,2.29,0.1C188.75,729.09,192.32,729.08,195.9,729.08z"/>
	</defs>
	<clipPath id="SVGID_6_">
		<use xlink:href="#SVGID_5_"  style="overflow:visible;"/>
	</clipPath>
	<g class="st2">
		<defs>
			<rect id="SVGID_7_" x="-1287.09" y="39.07" width="10231.11" height="16801.4"/>
		</defs>
		<clipPath id="SVGID_8_">
			<use xlink:href="#SVGID_7_"  style="overflow:visible;"/>
		</clipPath>
		<rect x="103.7" y="624.24" class="st3" width="182.35" height="186.49"/>
	</g>
</g>
<g>
	<defs>
		<path id="SVGID_9_" d="M258.29,718.33c0-12.93,0-25.86,0-38.79c0-3.8-0.05-7.59-0.04-11.38c0-0.85,0.1-1.72,0.21-2.57
			c0.09-0.63,0.57-1.05,1.24-1.12c0.59-0.07,1.19-0.12,1.79-0.11c7.61,0.05,15.23,0.14,22.84,0.14c4.8-0.01,9.58,0.23,14.35,0.64
			c6,0.51,11.8,1.96,17.25,4.63c6.68,3.27,12.13,8,16.4,14.12c3.48,4.98,5.94,10.45,7.61,16.29c1.04,3.64,1.74,7.36,2.24,11.13
			c0.62,4.72,0.74,9.47,0.31,14.2c-1.01,11.25-4.81,21.47-11.86,30.33c-6,7.55-13.83,12.18-23.22,14.13
			c-2.94,0.62-5.9,0.88-8.9,1.09c-7.86,0.57-15.73,0.41-23.6,0.44c-4.45,0.02-8.9,0.01-13.35,0.01c-0.68,0-1.37,0-2.05-0.03
			c-0.64-0.03-1.09-0.48-1.13-1.17c-0.06-0.86-0.08-1.72-0.08-2.58C258.29,751.26,258.29,734.8,258.29,718.33 M278.21,717.93
			L278.21,717.93c0,10.01,0,20.01,0,30.01c0,0.78,0.01,1.55,0.08,2.32c0.08,0.89,0.79,1.6,1.69,1.66c0.68,0.05,1.37,0.05,2.05,0.03
			c4.62-0.16,9.24-0.29,13.86-0.49c3-0.13,5.95-0.67,8.8-1.65c5.74-1.98,10.16-5.61,13.08-11c0.7-1.28,1.31-2.61,1.84-3.98
			c1.55-4.05,2.36-8.28,2.56-12.61c0.1-2.33,0.09-4.66-0.02-6.99c-0.15-3.19-0.59-6.35-1.49-9.42c-2.58-8.81-7.99-15.1-16.4-18.7
			c-1.33-0.58-2.71-1.07-4.1-1.48c-3.38-0.97-6.85-1.48-10.37-1.59c-2.74-0.08-5.48-0.09-8.22-0.12c-0.43-0.01-0.86,0-1.28,0.02
			c-1.26,0.09-1.91,0.69-2.01,1.9c-0.06,0.69-0.06,1.37-0.06,2.07C278.21,697.93,278.21,707.93,278.21,717.93"/>
	</defs>
	<clipPath id="SVGID_10_">
		<use xlink:href="#SVGID_9_"  style="overflow:visible;"/>
	</clipPath>
	<g class="st4">
		<defs>
			<rect id="SVGID_11_" x="-1287.09" y="39.07" width="10231.11" height="16801.4"/>
		</defs>
		<clipPath id="SVGID_12_">
			<use xlink:href="#SVGID_11_"  style="overflow:visible;"/>
		</clipPath>
		<rect x="218.28" y="624.39" class="st5" width="164.42" height="187.08"/>
	</g>
</g>
<g>
	<defs>
		<path id="SVGID_13_" d="M392.25,739.69c0.5-0.24,0.69-0.62,0.84-1.02c0.68-1.86,1.35-3.72,2.02-5.59
			c7.77-21.73,15.54-43.47,23.31-65.2c0.26-0.73,0.52-1.46,0.85-2.16c0.35-0.75,0.94-1.22,1.79-1.28c0.52-0.03,1.03-0.06,1.54-0.06
			c4.98-0.01,9.97-0.01,14.95,0c0.6,0.01,1.2,0.09,1.79,0.15c0.28,0.03,0.58,0.46,0.59,0.74c0.04,0.62-0.18,1.17-0.39,1.75
			c-1.18,3.24-2.35,6.47-3.51,9.72c-10.31,28.69-20.62,57.38-30.93,86.07c-0.61,1.71-1.2,3.41-1.8,5.12
			c-0.23,0.65-0.46,1.3-0.73,1.93c-0.44,1.05-1.19,1.66-2.37,1.65c-5.41,0-10.83-0.01-16.24,0c-0.98,0-1.63-0.48-2.02-1.33
			c-0.28-0.62-0.49-1.29-0.72-1.93c-6.31-17.86-12.61-35.74-18.92-53.6c-5.48-15.51-10.97-31.01-16.45-46.53
			c-0.31-0.89-0.54-1.81-0.78-2.73c-0.11-0.42,0.26-0.87,0.7-0.92c0.51-0.04,1.02-0.09,1.54-0.09c4.98-0.02,9.97-0.02,14.95-0.02
			c0.6,0,1.2,0.05,1.8,0.1c0.74,0.07,1.3,0.5,1.63,1.13c0.39,0.77,0.72,1.57,1,2.37c1.38,3.89,2.74,7.8,4.12,11.7
			c6.76,19.17,13.52,38.33,20.28,57.51c0.2,0.57,0.4,1.14,0.64,1.69C391.85,739.16,392.08,739.43,392.25,739.69"/>
	</defs>
	<clipPath id="SVGID_14_">
		<use xlink:href="#SVGID_13_"  style="overflow:visible;"/>
	</clipPath>
	<g class="st6">
		<defs>
			<rect id="SVGID_15_" x="-1287.09" y="39.07" width="10231.11" height="16801.4"/>
		</defs>
		<clipPath id="SVGID_16_">
			<use xlink:href="#SVGID_15_"  style="overflow:visible;"/>
		</clipPath>
		<rect x="305.08" y="624.39" class="st7" width="174.83" height="187.08"/>
	</g>
</g>
<g>
	<defs>
		<path id="SVGID_17_" d="M725.47,729.6v0.04c3.68,0,7.36,0.01,11.05-0.01c0.76-0.01,1.53-0.09,2.29-0.18
			c0.52-0.06,0.85-0.63,0.83-1.14c-0.05-0.8-0.41-1.49-0.69-2.21c-3.16-8.19-6.34-16.37-9.51-24.55c-0.9-2.33-1.79-4.65-2.71-6.98
			c-0.12-0.3-0.32-0.59-0.54-0.85c-0.07-0.08-0.39-0.08-0.43-0.01c-0.27,0.42-0.54,0.87-0.73,1.34c-1.63,4.16-3.23,8.35-4.85,12.51
			c-2.43,6.26-4.87,12.51-7.3,18.77c-0.28,0.72-0.54,1.45-0.79,2.18c-0.18,0.54,0.17,1.01,0.79,1.04c0.68,0.03,1.37,0.05,2.05,0.05
			C718.45,729.6,721.96,729.6,725.47,729.6z M766.7,771.5c-2.91,0-5.82-0.05-8.73,0.02c-1.31,0.03-2.08-0.49-2.52-1.7
			c-1-2.75-2.07-5.47-3.09-8.21c-1.05-2.82-2.08-5.65-3.12-8.47c-0.24-0.65-0.48-1.29-0.74-1.93c-0.44-1.05-1.28-1.61-2.36-1.75
			c-0.76-0.1-1.54-0.1-2.31-0.1c-4.19,0.01-8.39,0.04-12.58,0.04c-7.7,0-15.41-0.03-23.11-0.04c-0.77,0-1.55-0.01-2.31,0.08
			c-1.09,0.12-1.92,0.69-2.37,1.73c-0.21,0.47-0.39,0.96-0.57,1.44c-2.08,5.37-4.16,10.74-6.25,16.12
			c-0.21,0.56-0.44,1.12-0.71,1.65c-0.32,0.65-0.82,1.09-1.6,1.09c-0.34,0-0.69,0.02-1.03,0.02c-5.56-0.01-11.13-0.01-16.69-0.02
			c-0.34,0-0.69-0.02-1.03-0.03c-0.54-0.02-0.81-0.34-0.65-0.8c0.23-0.65,0.46-1.29,0.7-1.93c3.52-9.24,7.03-18.49,10.57-27.73
			c9.22-24.09,18.44-48.18,27.67-72.28c0.37-0.96,0.74-1.93,1.19-2.85c0.4-0.82,1.09-1.32,2.02-1.39c0.6-0.05,1.2-0.1,1.79-0.1
			c4.71,0,9.42,0.02,14.12,0.04c0.68,0,1.37,0.03,2.05,0.08c0.76,0.06,1.28,0.5,1.57,1.16c0.39,0.86,0.73,1.74,1.07,2.63
			c5.31,13.9,10.61,27.8,15.91,41.7c7.33,19.2,14.66,38.41,21.99,57.61c0.4,1.05,0.75,2.1,1.11,3.16c0.12,0.34-0.15,0.7-0.51,0.7
			c-1.11,0.02-2.23,0.04-3.34,0.05c-2.05,0.01-4.11,0-6.16,0V771.5z M618.93,773.84c-0.41-0.38-0.92-0.42-1.43-0.48
			c-1.94-0.23-3.9-0.42-5.83-0.7c-14.46-2.08-26.41-8.58-35.42-20.32c-5.41-7.07-8.83-15-10.29-23.78
			c-0.39-2.36-0.66-4.75-0.72-7.15c-0.07-3.25-0.13-6.51,0.15-9.76c1.3-15.17,7.61-27.75,19.44-37.38
			c7.14-5.8,15.26-9.58,24.24-11.52c4.27-0.93,8.58-1.39,12.93-1.33c10.3,0.18,20.06,2.47,29.09,7.59
			c5.6,3.18,10.59,7.16,15.05,11.82c0.41,0.42,0.74,0.93,1.06,1.44c0.18,0.3,0.15,0.66-0.03,0.98c-0.13,0.22-0.25,0.46-0.43,0.64
			c-0.35,0.38-0.73,0.72-1.1,1.07c-3.15,3.01-6.29,6.03-9.44,9.03c-0.49,0.47-0.99,0.94-1.51,1.38c-0.41,0.34-1.25,0.33-1.68-0.03
			c-0.52-0.44-1.03-0.9-1.52-1.37c-2.29-2.18-4.73-4.19-7.36-5.95c-5.18-3.47-10.84-5.75-16.98-6.69c-3.11-0.47-6.24-0.61-9.42-0.28
			c-4.63,0.48-9.05,1.63-13.17,3.78c-10.08,5.28-16.28,13.52-18.51,24.75c-0.59,2.95-0.92,5.93-0.85,8.94
			c0.1,4.3,0.72,8.53,2.21,12.59c3.04,8.33,8.52,14.52,16.33,18.62c3.57,1.88,7.36,3.08,11.34,3.75c3.9,0.66,7.82,0.66,11.71,0.26
			c4.35-0.44,8.48-1.76,12.39-3.78c3.2-1.65,6.14-3.68,8.88-6.01c1.23-1.05,2.41-2.18,3.61-3.27c0.38-0.34,0.75-0.7,1.15-1.01
			c0.51-0.4,1.44-0.37,1.91,0.06c0.38,0.34,0.74,0.7,1.1,1.07c3.19,3.34,6.37,6.67,9.55,10.02c0.41,0.44,0.83,0.86,1.22,1.32
			c0.49,0.57,0.44,1.25-0.1,1.84c-0.17,0.19-0.35,0.38-0.54,0.55c-4.12,3.87-8.46,7.44-13.24,10.45c-3.99,2.51-8.19,4.55-12.7,5.93
			c-2.94,0.9-5.92,1.53-8.98,1.87c-1.43,0.16-2.86,0.45-4.28,0.71c-0.24,0.04-0.44,0.23-0.67,0.36H618.93z M491.99,773.84
			c-0.5-0.39-1.1-0.42-1.69-0.5c-2.1-0.33-4.21-0.6-6.3-1.01c-8.09-1.59-15.39-4.96-21.85-10.06c-11.02-8.69-17.93-19.98-20.8-33.79
			c-1.13-5.43-1.34-10.9-0.8-16.37c2.3-23.05,17.08-39.92,34.9-46.93c3.9-1.53,7.92-2.61,12.05-3.25c3.88-0.61,7.8-0.83,11.72-0.53
			c11.64,0.89,22.02,5.04,30.97,12.59c10.15,8.56,16.57,19.42,19.33,32.44c0.98,4.62,1.35,9.32,1.09,14.05
			c-1.3,23.66-16.15,41.45-33.74,48.86c-4.02,1.69-8.16,2.93-12.5,3.49c-1.27,0.16-2.52,0.39-3.78,0.62
			c-0.32,0.06-0.62,0.26-0.93,0.39H491.99z M460.59,717.75c-0.1,3.75,0.47,7.72,1.71,11.58c2.96,9.22,8.6,16.24,17.2,20.73
			c4.83,2.52,10.01,3.74,15.46,3.84c4.66,0.1,9.14-0.69,13.47-2.41c12.18-4.87,20.86-16.6,21.98-30.63c0.26-3.25,0.16-6.49-0.4-9.73
			c-1.04-6.02-3.31-11.49-7.05-16.31c-6.25-8.05-14.51-12.5-24.58-13.52c-3.74-0.38-7.47-0.05-11.15,0.84
			c-10.11,2.44-17.59,8.3-22.47,17.5C461.82,705.18,460.5,711.16,460.59,717.75z"/>
	</defs>
	<clipPath id="SVGID_18_">
		<use xlink:href="#SVGID_17_"  style="overflow:visible;"/>
	</clipPath>
	<g class="st8">
		<defs>
			<rect id="SVGID_19_" x="-1287.09" y="39.07" width="10231.11" height="16801.4"/>
		</defs>
		<clipPath id="SVGID_20_">
			<use xlink:href="#SVGID_19_"  style="overflow:visible;"/>
		</clipPath>
		<rect x="400.31" y="621.3" class="st9" width="416.4" height="192.51"/>
	</g>
</g>
<g>
	<defs>
		<path id="SVGID_21_" d="M794.62,728.1v-39.59c0-0.94,0.05-1.89-0.23-2.82c-0.22-0.73-0.7-1.2-1.41-1.36
			c-0.58-0.13-1.19-0.18-1.79-0.18c-4.13,0-8.27,0.03-12.4,0.04c-0.77,0-1.54-0.08-2.31-0.15c-0.39-0.04-0.77-0.5-0.81-0.9
			c-0.03-0.34-0.07-0.69-0.07-1.03c-0.01-5.17-0.01-10.34,0-15.52c0-0.43,0.05-0.86,0.12-1.28c0.06-0.36,0.3-0.6,0.65-0.73
			c0.75-0.27,1.53-0.22,2.3-0.22c3.19,0.01,6.37,0.02,9.56,0.02c13.43-0.01,26.87-0.02,40.3-0.02c1.2,0,2.41-0.02,3.62,0.02
			c0.51,0.01,1.02,0.1,1.53,0.19c0.36,0.07,0.6,0.34,0.71,0.68c0.1,0.33,0.2,0.67,0.22,1.01c0.03,0.6,0,1.21,0,1.81
			c0,4.23,0.01,8.45,0,12.68c0,0.77-0.04,1.55-0.12,2.31c-0.05,0.51-0.54,0.98-1.02,1.04c-0.6,0.06-1.2,0.12-1.8,0.11
			c-4.3-0.05-8.61,0.18-12.92-0.08c-0.51-0.02-1.04,0-1.54,0.08c-1.15,0.18-1.9,0.93-2,2.05c-0.08,0.85-0.09,1.73-0.09,2.58
			c0,8.03,0.01,16.04,0.02,24.07c0.02,18.02,0.03,36.05,0.04,54.07c0,0.77,0.02,1.55-0.04,2.33c-0.03,0.42-0.16,0.85-0.32,1.23
			c-0.21,0.5-0.6,0.86-1.16,0.91c-0.51,0.06-1.03,0.07-1.55,0.07c-4.91,0-9.82-0.02-14.73,0c-2.39,0.01-2.86-0.26-2.88-2.79
			c-0.01-2.25,0.04-4.48,0.04-6.73c0-11.29,0-22.6,0-33.89H794.62z"/>
	</defs>
	<clipPath id="SVGID_22_">
		<use xlink:href="#SVGID_21_"  style="overflow:visible;"/>
	</clipPath>
	<g class="st10">
		<defs>
			<rect id="SVGID_23_" x="-1287.09" y="39.07" width="10231.11" height="16801.4"/>
		</defs>
		<clipPath id="SVGID_24_">
			<use xlink:href="#SVGID_23_"  style="overflow:visible;"/>
		</clipPath>
		<rect x="735.62" y="624.39" class="st11" width="138.96" height="187.08"/>
	</g>
</g>
<g>
	<defs>
		<path id="SVGID_25_" d="M909.99,770.24c-0.4,0.14-0.78,0.37-1.19,0.42c-0.67,0.07-1.36,0.03-2.04,0.03
			c-16.78,0.01-33.56,0.01-50.34,0.01c-0.85,0-1.7-0.02-2.55-0.06c-0.58-0.02-1.12-0.51-1.23-1.13c-0.11-0.58-0.18-1.18-0.18-1.78
			c-0.01-2.31,0-4.62,0.01-6.94c0.02-11.39,0.05-22.79,0.07-34.18c0.01-9.42,0.03-18.85,0.02-28.27c-0.01-9.51-0.07-19.02-0.1-28.53
			c0-1.03-0.03-2.06,0.02-3.09c0.03-0.5,0.16-1.02,0.31-1.49c0.13-0.42,0.44-0.78,0.9-0.83c0.84-0.1,1.69-0.2,2.53-0.21
			c2.98-0.01,5.96,0.04,8.94,0.04c13.54-0.01,27.08-0.02,40.63-0.03c0.85,0,1.7,0,2.55,0.03c0.61,0.02,1.17,0.2,1.66,0.58v18.52
			c-0.39,0.16-0.77,0.4-1.17,0.45c-0.67,0.09-1.36,0.06-2.04,0.06c-10.03-0.02-20.07-0.03-30.11-0.05c-0.59,0-1.19-0.01-1.78,0.02
			c-0.34,0.01-0.68,0.06-1.01,0.14c-0.77,0.18-1.35,0.81-1.43,1.61c-0.06,0.6-0.09,1.19-0.07,1.79c0.13,4.28,0.18,8.55-0.04,12.83
			c-0.03,0.69-0.03,1.38,0.22,2.02c0.12,0.3,0.36,0.6,0.63,0.77c0.35,0.22,0.77,0.38,1.18,0.42c0.67,0.08,1.36,0.06,2.04,0.06
			c10.03-0.02,20.07-0.03,30.1-0.05c0.68,0,1.36,0.02,2.04,0.02c0.53,0,0.98,0.24,1.44,0.48v18.51c-1.04,0.46-2.15,0.4-3.25,0.39
			c-10.12-0.01-20.24-0.03-30.37-0.04c-0.76,0-1.53,0.02-2.29,0.07c-0.83,0.06-1.46,0.63-1.57,1.44c-0.1,0.75-0.17,1.53-0.16,2.29
			c0.16,6.84,0.15,13.68,0.01,20.53c-0.01,0.68,0.01,1.37,0.08,2.05c0.1,0.99,0.69,1.58,1.63,1.65c0.68,0.05,1.36,0.06,2.04,0.06
			c8.34-0.01,16.67-0.02,25.01-0.02c2.13-0.01,4.25,0.01,6.38-0.02c0.86-0.02,1.69,0.08,2.49,0.41V770.24z"/>
	</defs>
	<clipPath id="SVGID_26_">
		<use xlink:href="#SVGID_25_"  style="overflow:visible;"/>
	</clipPath>
	<g class="st12">
		<defs>
			<rect id="SVGID_27_" x="-1287.09" y="39.07" width="10231.11" height="16801.4"/>
		</defs>
		<clipPath id="SVGID_28_">
			<use xlink:href="#SVGID_27_"  style="overflow:visible;"/>
		</clipPath>
		<rect x="812.48" y="624.22" class="st13" width="137.48" height="186.44"/>
	</g>
</g>
<g>
	<defs>
		<path id="SVGID_29_" d="M723.94,195.96c0.13,0.13,0.23,0.33,0.38,0.36c1.12,0.28,2.23,0.62,3.36,0.77
			c2.11,0.26,4.24,0.37,6.36,0.58c1.68,0.18,3.35,0.37,5.01,0.65c5.16,0.87,10.3,1.81,15.41,2.99c16.35,3.78,31.92,9.65,46.72,17.6
			c12.75,6.86,24.52,15.16,35.53,24.59c13.76,11.78,25.93,25.03,36.28,39.96c11.55,16.64,20.35,34.67,26.66,53.96
			c3.18,9.71,5.69,19.61,7.6,29.65c0.99,5.2,1.78,10.43,2.41,15.68c0.35,2.93,0.49,5.9,0.76,8.84c0.66,7.26,0.51,14.52,0.47,21.79
			c-0.02,3.96-0.44,7.89-0.61,11.83c-0.01,0.25-0.15,0.5-0.26,0.73c-0.1,0.21-0.27,0.21-0.46,0.09c-0.48-0.3-0.69-0.82-0.95-1.27
			c-1.82-3.18-3.64-6.36-5.44-9.56c-11.98-21.18-23.94-42.37-35.94-63.54c-1.86-3.28-3.5-6.65-4.84-10.17
			c-0.06-0.16-0.15-0.32-0.21-0.49c-2.93-8.32-7.02-16.07-11.43-23.66c-7.09-12.19-15.32-23.52-24.98-33.77
			c-18.38-19.49-40.3-33.27-65.7-41.4c-7.19-2.31-14.5-4.15-21.93-5.47c-3.49-0.62-6.99-1.18-10.52-1.62
			c-4.41-0.54-8.82-0.97-13.26-1.07c-1.6-0.04-3.19-0.18-4.79-0.22c-4.62-0.12-9.24,0.17-13.84,0.48c-3.8,0.26-7.58,0.78-11.36,1.36
			c-12.52,1.94-24.56,5.52-36.17,10.61c-10.96,4.8-21.21,10.84-30.85,17.95c-12.83,9.46-24.42,20.26-34.46,32.72
			c-13.91,17.26-23.93,36.61-30.1,57.98c-2.12,7.33-3.76,14.75-4.91,22.29c-0.63,4.17-1.14,8.35-1.59,12.54
			c-0.85,8.05-1.06,16.11-0.93,24.2c0.07,4.67,0.45,9.31,0.9,13.96c0.4,4.11,0.97,8.18,1.67,12.25c1.43,8.42,3.52,16.65,6.24,24.73
			c4.18,12.46,9.76,24.24,16.71,35.36c10.23,16.35,22.53,30.89,37.15,43.39c16.27,13.91,34.62,24,55.06,30.16
			c5.7,1.72,11.47,3.12,17.33,4.15c3.58,0.63,7.18,1.16,10.78,1.63c2.64,0.34,5.31,0.37,7.95,0.81c0.35,0.06,0.7,0.06,1.06,0.07
			c7.28,0.33,14.56,0.41,21.83-0.02c2.74-0.16,5.48-0.42,8.21-0.81c2.64-0.37,5.27-0.72,7.9-1.16c5.95-1.01,11.81-2.43,17.59-4.17
			c17.09-5.15,32.75-13.23,47.22-23.69c7.23-5.23,14.1-10.91,20.47-17.19c8.1-7.99,15.22-16.8,21.54-26.28
			c0.5-0.74,1-1.48,1.48-2.24c1.26-1.97,1.35-1.79,2.5,0.18c0.41,0.7,0.8,1.4,1.19,2.1c4.63,8.17,9.27,16.35,13.9,24.51
			c0.62,1.09,1.25,2.17,1.88,3.25c0.26,0.46,0.51,0.94,0.76,1.41c0.67,1.24,0.55,2.41-0.25,3.54c-0.26,0.37-0.53,0.72-0.81,1.07
			c-11.38,14.35-24.16,27.26-38.72,38.33c-19.29,14.67-40.56,25.28-63.82,31.82c-6.16,1.73-12.37,3.16-18.65,4.33
			c-4.1,0.76-8.23,1.36-12.35,1.93c-2.63,0.35-5.3,0.46-7.95,0.73c-7.8,0.78-15.61,0.63-23.42,0.46c-1.77-0.04-3.54-0.22-5.31-0.34
			c-0.35-0.02-0.71-0.07-1.06-0.1c-4.61-0.26-9.17-0.9-13.74-1.59c-7.29-1.1-14.47-2.71-21.56-4.7
			c-13.99-3.94-27.33-9.49-40.14-16.37c-18.08-9.71-34.4-21.83-48.79-36.57c-12.1-12.41-22.38-26.19-31.09-41.2
			c-3.59-6.19-6.87-12.56-9.92-19.05c-0.38-0.81-0.79-1.6-1.21-2.39c-0.12-0.22-0.35-0.46-0.65-0.34c-0.22,0.09-0.46,0.26-0.57,0.47
			c-0.41,0.79-0.78,1.61-1.16,2.42c-11.04,24.03-26.07,45.22-44.7,63.79c-22.56,22.48-49.12,38.16-79.47,47.3
			c-7.23,2.17-14.56,3.93-21.97,5.33c-3.83,0.73-7.69,1.36-11.56,1.83c-3.44,0.42-6.87,0.78-10.32,1.09
			c-6.73,0.61-13.48,0.65-20.23,0.54c-1.69-0.03-3.37-0.06-5.06-0.14c-1.51-0.07-3.01-0.21-4.51-0.32
			c-0.35-0.03-0.71-0.09-1.06-0.11c-3.28-0.16-6.53-0.62-9.79-1.06c-4.13-0.56-8.23-1.3-12.31-2.14c-9.14-1.9-18.06-4.55-26.79-7.87
			c-12.83-4.88-24.99-11.13-36.54-18.6c-16.39-10.59-31.27-23.01-44.38-37.57c-16.86-18.74-29.69-39.97-38.59-63.63
			c-4.2-11.17-7.42-22.63-9.78-34.34c-1.19-5.89-2.17-11.81-2.94-17.77c-0.57-4.45-0.98-8.91-1.32-13.39
			c-0.67-8.79-0.64-17.57-0.4-26.36c0.11-3.95,0.48-7.88,0.86-11.8c0.32-3.21,0.72-6.42,1.17-9.61c0.77-5.42,1.79-10.79,3.01-16.12
			c6.01-26.27,16.93-50.35,31.92-72.58c7.67-11.38,16.25-22,25.91-31.71c18.7-18.78,40.32-33.06,64.78-42.95
			c9.65-3.9,19.53-7.07,29.64-9.48c4.14-0.99,8.31-1.84,12.53-2.43c3.34-0.46,6.67-0.98,10.01-1.41c1.67-0.22,3.36-0.28,5.04-0.44
			c0.35-0.03,0.72-0.1,1.02-0.26c0.2-0.1,0.31-0.39,0.46-0.6h3.2c1.24,0.63,2.49,0.65,3.73,0h14.92c1.07,0.61,2.13,0.68,3.2,0h2.13
			c0.82,0.37,1.69,0.56,2.59,0.58c2.4,0.05,4.78,0.38,7.17,0.48c3.65,0.14,7.24,0.69,10.82,1.33c6.81,1.21,13.54,2.78,20.18,4.74
			c14.95,4.41,29.29,10.31,42.8,18.17c27.94,16.23,50.89,37.91,68.81,64.99c6.12,9.24,11.81,18.75,16.16,29.01
			c0.28,0.66,0.63,1.29,0.96,1.92c0.15,0.28,0.75,0.27,0.92-0.02c0.13-0.23,0.27-0.45,0.39-0.7c0.83-1.69,1.66-3.37,2.47-5.06
			c8.42-17.65,19.15-33.74,32.08-48.31c22.95-25.87,50.52-44.87,82.96-56.53c8.78-3.15,17.76-5.59,26.91-7.37
			c3.31-0.64,6.62-1.21,9.95-1.72c3.07-0.46,6.14-0.9,9.26-0.87c0.71,0,1.42-0.02,2.13-0.04c0.98-0.03,1.94-0.19,2.85-0.6h3.2
			c1.06,0.66,2.13,0.6,3.2,0h14.39c1.24,0.64,2.49,0.62,3.73,0H723.94z M471.97,406.58c-0.1-1.89-0.25-4.48-0.36-7.08
			c-0.2-5.03-0.84-10.01-1.65-14.96c-1.57-9.59-4.17-18.89-7.81-27.88c-5.9-14.56-13.93-27.82-24.05-39.77
			c-14.79-17.46-33.02-29.73-54.7-36.73c-10.61-3.43-21.47-5.49-32.58-6.28c-0.53-0.04-1.06-0.07-1.59-0.14
			c-2.65-0.37-5.32-0.43-7.97-0.14c-3.44,0.37-6.92,0.28-10.35,0.83c-1.92,0.31-3.88,0.4-5.8,0.75c-3.92,0.71-7.83,1.53-11.69,2.54
			c-11.48,3.03-22.36,7.54-32.54,13.72c-8.41,5.11-16.09,11.17-23.02,18.18c-10.16,10.28-18.78,21.74-25.54,34.59
			c-6.04,11.48-10.28,23.6-12.63,36.4c-0.7,3.79-1.24,7.6-1.62,11.44c-0.52,5.19-0.79,10.38-0.69,15.58
			c0.11,5.92,0.47,11.82,1.23,17.7c0.68,5.25,1.55,10.46,2.74,15.61c3.62,15.63,9.87,30.09,18.9,43.3
			c9.69,14.19,21.71,26.03,35.75,35.79c7.85,5.47,16.23,9.94,25.15,13.34c9.08,3.47,18.44,5.79,28.1,6.84
			c5.21,0.56,10.43,0.97,15.67,0.87c2.22-0.04,4.43-0.26,6.65-0.34c3.55-0.13,7.07-0.56,10.59-1.04c3.96-0.54,7.87-1.29,11.76-2.2
			c12.1-2.84,23.48-7.5,34.12-13.99c10.8-6.59,20.3-14.76,28.72-24.22c14.74-16.57,25.01-35.6,30.64-57.16
			c1.74-6.69,2.98-13.47,3.7-20.34C471.58,416.96,471.82,412.14,471.97,406.58z"/>
	</defs>
	<clipPath id="SVGID_30_">
		<use xlink:href="#SVGID_29_"  style="overflow:visible;"/>
	</clipPath>
	<g class="st14">
		<defs>
			<rect id="SVGID_31_" x="-1287.09" y="39.07" width="10231.11" height="16801.4"/>
		</defs>
		<clipPath id="SVGID_32_">
			<use xlink:href="#SVGID_31_"  style="overflow:visible;"/>
		</clipPath>
		<rect x="103.7" y="156" class="st15" width="847.2" height="502.69"/>
	</g>
</g>
<g>
	<defs>
		<path id="SVGID_33_" d="M885.51,509.03c-0.2-0.18-0.44-0.31-0.57-0.53c-0.43-0.68-0.81-1.39-1.21-2.09
			c-15.08-26.72-30.15-53.45-45.24-80.16c-0.48-0.85-0.83-1.8-1.57-2.48c-0.06-0.05-0.18-0.1-0.24-0.08
			c-0.14,0.05-0.36,0.13-0.39,0.24c-0.21,0.87-0.4,1.75-0.57,2.63c-0.14,0.7-0.26,1.41-0.37,2.12c-1.08,7.39-3.16,14.53-5.5,21.6
			c-3.76,11.36-8.65,22.18-14.99,32.32c-10,15.96-22.91,28.93-38.93,38.7c-9.23,5.63-19.05,9.92-29.33,13.17
			c-5.5,1.74-11.08,3.17-16.75,4.22c-3.05,0.56-6.12,0.97-9.21,1.33c-7.17,0.82-14.35,0.77-21.52,0.34
			c-2.47-0.14-4.93-0.52-7.39-0.87c-4.13-0.6-8.2-1.45-12.23-2.53c-9.82-2.62-19.13-6.52-27.95-11.61
			c-14.16-8.15-26.66-18.37-37.29-30.89c-11.56-13.6-19.8-29.04-24.87-46.22c-1.98-6.71-3.39-13.55-4.4-20.48
			c-1.45-9.98-1.81-20.01-1.41-30.07c0.13-3.22,0.46-6.43,0.85-9.65c0.42-3.48,0.97-6.92,1.65-10.35
			c2.51-12.77,6.91-24.84,13.13-36.23c6-10.98,13.47-20.86,22.12-29.85c7.33-7.61,15.34-14.39,24.22-20.1
			c10.17-6.55,21.06-11.45,32.73-14.52c4.12-1.08,8.28-1.95,12.49-2.55c3.78-0.53,7.56-0.99,11.38-1.09
			c0.98-0.02,1.95-0.14,2.92-0.15c2.22-0.02,4.43-0.04,6.65,0c1.51,0.02,3.01,0.17,4.52,0.22c3.37,0.1,6.71,0.53,10.05,0.97
			c3.43,0.43,6.83,1.02,10.22,1.72c28.45,5.92,51.93,20.08,69.98,43.21c4.79,6.15,8.96,12.7,12.65,19.57
			c8.81,16.39,17.82,32.67,26.94,48.89c11.7,20.82,23.45,41.61,35.14,62.44c5.17,9.2,10.26,18.45,15.38,27.69
			c0.39,0.69,0.77,1.41,1.14,2.13c0.25,0.5,0.26,1.04,0.07,1.57c-0.19,0.5-0.41,0.99-0.62,1.49c-3.5,7.95-6.99,15.9-10.5,23.84
			C886.38,507.64,886.22,508.48,885.51,509.03 M708.87,300.72c-2.15,0.03-5.59,0.08-9.04,0.48c-3.88,0.44-7.73,1.05-11.53,1.94
			c-10.72,2.52-20.7,6.83-30.01,12.75c-28.43,18.1-46.78,49.48-48.79,84.89c-0.33,5.93-0.05,11.85,0.6,17.74
			c0.45,4.09,1.09,8.17,1.95,12.21c2.21,10.33,5.78,20.14,10.91,29.36c5.89,10.59,13.47,19.78,22.42,27.84
			c10.97,9.88,23.48,16.95,37.57,21.16c4.68,1.4,9.43,2.44,14.28,3.1c1.94,0.26,3.88,0.36,5.82,0.6c2.21,0.27,4.42,0.33,6.64,0.34
			c2.84,0.02,5.67-0.12,8.5-0.38c3.8-0.34,7.56-0.89,11.3-1.65c9.02-1.83,17.56-4.99,25.64-9.42c7.75-4.24,14.96-9.3,21.58-15.19
			c15.88-14.14,26.22-31.63,31.02-52.47c0.99-4.29,1.73-8.61,2.21-12.99c0.47-4.28,0.84-8.57,0.88-12.88
			c0.04-4.04-0.01-8.07-0.37-12.1c-0.36-4.03-0.88-8.02-1.64-11.98c-1.83-9.58-5.03-18.67-9.51-27.31
			c-5.07-9.77-11.57-18.48-19.16-26.37c-11.29-11.75-24.72-20.02-40.13-25.01c-5.07-1.64-10.25-2.81-15.52-3.61
			C719.75,301.02,714.98,300.67,708.87,300.72"/>
	</defs>
	<clipPath id="SVGID_34_">
		<use xlink:href="#SVGID_33_"  style="overflow:visible;"/>
	</clipPath>
	<g class="st16">
		<defs>
			<rect id="SVGID_35_" x="-1287.09" y="39.07" width="10231.11" height="16801.4"/>
		</defs>
		<clipPath id="SVGID_36_">
			<use xlink:href="#SVGID_35_"  style="overflow:visible;"/>
		</clipPath>
		<rect x="543.48" y="233.22" class="st17" width="394.44" height="347.41"/>
	</g>
</g>
<g>
	<defs>
		<path id="SVGID_37_" d="M-1794.55-6434.21h6.14v6.01c2.04-2.72,3.1-3.94,3.07-6.01c2.68,0.42,4.13,0,6.14,0
			c0.68,0,1.85,0.28,3.07,0l-3.07,9.02c-0.62-1.7-1.45-1.94-3.07-3.01c-0.36,1.07-1.48,1.85-3.07,3.01c-0.24,1.91-0.69,4.94,0,9.02
			v3.01v12.03h-9.21V-6434.21z M-1809.89-6422.18c-0.56-1.78-1.67-3.23-3.07-3.01c-1.9-2.45-3.82-3.01-6.14-3.01
			c-2.23,0-4.31,0.63-6.14,3.01c-1.08-0.35-2.11,1.03-3.07,3.01H-1809.89z M-1803.76-6416.17h-24.55c-1.03,3.02-0.03,4.8,3.07,6.02
			c0.15,1.42,2.23,2.08,6.14,3.01c1.63-0.93,4.22-1.96,6.14-3.01l6.14,3.01c-0.78,1.46-2.81,3.2-6.14,3.01
			c-1.41,2.45-4.21,3.01-6.14,3.01c-6.37,0-10.48-1.56-12.28-6.02c-4.55-1.77-6.14-5.67-6.14-9.02c0-6.13,1.58-10.11,6.14-12.03
			c1.77-4.43,5.74-6.01,9.21-6.01c6.36,0,10.48,1.58,12.28,6.01C-1805.34-6426.28-1803.76-6422.09-1803.76-6416.17z M-1859-6446.24
			h9.21v12.03h6.14v6.01h-6.14v27.07h-9.21v-27.07h-3.07v-6.01h3.07V-6446.24z M-1886.63-6425.18c-2.62,0-4.82,0.82-6.14,3.01
			c-2.19,1.11-3.07,3.27-3.07,6.01c0,2.64,0.88,4.84,3.07,6.02c1.32,2.17,3.52,3.01,6.14,3.01c2.63,0,4.8-0.85,6.14-3.01
			c2.19-1.25,3.07-3.43,3.07-6.02c0-2.68-0.87-4.83-3.07-6.01C-1881.75-6424.34-1883.94-6425.18-1886.63-6425.18z M-1895.84-6434.21
			v3.01c0.4-0.06,2-1.17,3.07-3.01c2.37,0.37,4.2,0,6.14,0c4.28,0,7.9,1.6,12.28,6.01c1.58,1.98,3.07,6.08,3.07,12.03
			c0,3.89-1.54,7.93-6.14,12.03c-1.56,2.39-5.21,4.01-9.21,3.01c-2.09,1-3.84,0.67-6.14,0c-0.94-0.66-2.55-1.75-3.07-3.01v15.04
			h-9.21v-45.11H-1895.84z M-1932.67-6425.18c-2.7,0-4.87,0.84-6.14,3.01c-2.2,1.18-3.07,3.33-3.07,6.01c0,2.59,0.88,4.76,3.07,6.02
			c1.34,2.16,3.51,3.01,6.14,3.01c2.62,0,4.82-0.84,6.14-3.01c2.19-1.18,3.07-3.38,3.07-6.02c0-2.74-0.88-4.9-3.07-6.01
			C-1927.84-6424.36-1930.06-6425.18-1932.67-6425.18z M-1926.53-6434.21h9.21v33.08h-9.21v-3.01c-0.55,0.34-2.15,1.4-3.07,3.01
			c-2.3-0.33-4.04,0-6.14,0c-4,0-7.65-1.57-9.21-6.02c-4.6-1.86-6.14-5.78-6.14-9.02c0-6.3,1.49-10.28,3.07-12.03
			c4.38-4.46,7.99-6.01,12.28-6.01c1.93,0,3.77,0.36,6.14,0c1.07,1.78,2.66,2.85,3.07,3.01V-6434.21z M-1990.99-6446.24h9.21v15.03
			c0.09-0.56,1.62-1.59,3.07-3.01c1.65,0.04,3.22-0.3,6.14,0c1.76-0.3,4.36,0.82,6.14,3.01c2.16,1.97,3.07,4.82,3.07,9.02v21.05
			h-9.21v-15.04c1.5-3,1.33-5.55,0-6.01c0.64-2.21,0.05-3.21,0-3.01c-1.61-1.52-2.64-1.85-3.07-3.01c-2.38,1.17-3.74,1.71-6.14,3.01
			c0.13,0.9-0.66,2.39,0,3.01c-1.33,2.25-1.44,4.49,0,9.02v12.03h-9.21V-6446.24z M-2003.26-6437.21l-6.14,6.01
			c-3.79-5.04-8.32-7.1-12.28-6.01c-5.31-1.09-8.88,0.32-12.28,3c-2.41,2.92-3.86,6.37-3.07,9.02c-0.79,4.32-0.15,6.86,0,9.02
			c2.42,2.28,4.24,4.02,6.14,6.02c2.81,0.54,5.42,1.17,9.21,0c1.54,1.17,3.78,0.73,6.14,0c1.7-1.05,3.93-2.65,6.14-6.02l6.14,6.02
			c-3.46,3.88-6.55,6.03-9.21,6.01c-3.18,2.41-6.5,3.01-9.21,3.01c-7.93,0-13.57-2.12-18.42-6.02c-3.94-4.56-6.14-9.99-6.14-18.04
			c0-2.85,1-6.66,3.07-9.02c1.93-4.29,4.8-6.97,9.21-9.02c3.05-2,7.06-3,12.28-3c2.75,0,6.27,0.75,9.21,3
			C-2008.64-6442.49-2005.71-6440.36-2003.26-6437.21z M-2110.69-6434.21h9.21l6.14,21.05l9.21-21.05h9.21l-21.49,45.11h-6.14
			l6.14-15.04L-2110.69-6434.21z M-2129.11-6446.24h9.21v12.03h6.14v6.01h-6.14v27.07h-9.21v-27.07h-3.07v-6.01h3.07V-6446.24z
			 M-2150.59-6434.21h9.21v33.08h-9.21V-6434.21z M-2147.52-6446.24c2.79,0,3.87,0.44,6.14,0c-0.45,2.21,0,3.28,0,6.01
			c0-0.23-0.45,0.82,0,3.01c-2.24-0.44-3.32,0-3.07,0c-2.78,0-3.87-0.45-6.14,0c0.45-2.23,0-3.32,0-6.02c0,0.21,0.45-0.84,0-3
			C-2148.35-6445.8-2147.27-6446.24-2147.52-6446.24z M-2159.8-6437.21l-6.14,6.01c-3.79-5.04-8.32-7.1-12.28-6.01
			c-5.31-1.09-8.88,0.32-12.28,3c-2.41,2.92-3.86,6.37-3.07,9.02c-0.79,4.32-0.15,6.86,0,9.02c2.42,2.28,4.24,4.02,6.14,6.02
			c2.81,0.54,5.42,1.17,9.21,0c1.54,1.17,3.78,0.73,6.14,0c1.7-1.05,3.93-2.65,6.14-6.02l6.14,6.02c-3.46,3.88-6.55,6.03-9.21,6.01
			c-3.18,2.41-6.5,3.01-9.21,3.01c-7.93,0-13.57-2.12-18.42-6.02c-3.94-4.56-6.14-9.99-6.14-18.04c0-2.85,1-6.66,3.07-9.02
			c1.93-4.29,4.8-6.97,9.21-9.02c3.05-2,7.06-3,12.28-3c2.75,0,6.27,0.75,9.21,3C-2165.17-6442.49-2162.25-6440.36-2159.8-6437.21z
			 M-2264.16-6446.24h9.21v27.06l12.28-15.04h9.21l-12.28,15.04l15.35,18.05h-9.21l-15.35-15.04v15.04h-9.21V-6446.24z
			 M-2288.71-6434.21h6.14v6.01c2.04-2.72,3.1-3.94,3.07-6.01c2.68,0.42,4.13,0,6.14,0c0.68,0,1.85,0.28,3.07,0l-3.07,9.02
			c-0.62-1.7-1.45-1.94-3.07-3.01c-0.36,1.07-1.48,1.85-3.07,3.01c-0.24,1.91-0.69,4.94,0,9.02v3.01v12.03h-9.21V-6434.21z
			 M-2316.33-6425.18c-2.64,0-4.83,0.84-6.14,3.01c-2.19,1.2-3.07,3.35-3.07,6.01c0,2.66,0.86,4.84,3.07,6.02
			c1.25,2.17,3.44,3.01,6.14,3.01c2.6,0,4.81-0.85,6.14-3.01c2.19-1.22,3.07-3.4,3.07-6.02c0-2.7-0.86-4.86-3.07-6.01
			C-2311.45-6424.35-2313.66-6425.18-2316.33-6425.18z M-2316.33-6434.21c4.38,0,7.24,0.74,9.21,3.01c3.37,0.7,5.46,2.72,6.14,6.02
			c2.32,1.79,3.07,4.54,3.07,6.01c0,4.44-0.75,7.22-3.07,9.02c-0.7,3.37-2.76,5.38-6.14,6.01c-1.83,2.29-4.7,3.01-9.21,3.01
			c-3.24,0-7.18-1.61-9.21-6.02c-4.51-2.01-6.14-5.91-6.14-9.02c0-6.39,1.84-10.49,6.14-15.04
			C-2322.91-6432.78-2319.19-6434.21-2316.33-6434.21z M-2377.72-6443.23h9.21l9.21,15.04l6.14-15.04h9.21l-12.28,24.06v18.05h-9.21
			v-18.05L-2377.72-6443.23z M-2454.45-6434.21h9.21l6.14,18.04l6.14-18.04h6.14l6.14,18.04l6.14-18.04h9.21l-12.28,33.08h-6.14
			l-6.14-18.05l-6.14,18.05h-6.14L-2454.45-6434.21z M-2469.8-6422.18c-0.56-1.78-1.67-3.23-3.07-3.01
			c-1.9-2.45-3.82-3.01-6.14-3.01c-2.23,0-4.3,0.63-6.14,3.01c-1.07-0.35-2.11,1.03-3.07,3.01H-2469.8z M-2460.59-6416.17h-24.55
			c-1.03,3.02-0.03,4.8,3.07,6.02c0.15,1.42,2.23,2.08,6.14,3.01c1.63-0.93,4.22-1.96,6.14-3.01l6.14,3.01
			c-0.78,1.46-2.81,3.2-6.14,3.01c-1.41,2.45-4.21,3.01-6.14,3.01c-6.37,0-10.48-1.56-12.28-6.02c-4.55-1.77-6.14-5.67-6.14-9.02
			c0-6.13,1.58-10.11,6.14-12.03c1.77-4.43,5.74-6.01,9.21-6.01c6.36,0,10.48,1.58,12.28,6.01
			C-2462.18-6426.28-2460.59-6422.09-2460.59-6416.17z M-2543.47-6443.23h9.21l18.42,27.07v-27.07h9.21v42.11h-9.21l-18.42-27.07
			v27.07h-9.21V-6443.23z"/>
	</defs>
	<clipPath id="SVGID_38_">
		<use xlink:href="#SVGID_37_"  style="overflow:visible;"/>
	</clipPath>
	<g class="st18">
		<defs>
			<rect id="SVGID_39_" x="-3974.22" y="-7215.37" width="10231.11" height="16801.4"/>
		</defs>
		<clipPath id="SVGID_40_">
			<use xlink:href="#SVGID_39_"  style="overflow:visible;"/>
		</clipPath>
		<rect x="-2583.43" y="-6486.2" class="st19" width="847.26" height="137.07"/>
	</g>
</g>
<g>
	<defs>
		<path id="SVGID_41_" d="M-2543.47-6484.71c0.45,0.02,0.86-0.08,1.08-0.51c0.36-0.68,0.73-1.36,1.02-2.07
			c0.95-2.29,1.91-4.58,2.79-6.9c3.42-8.95,6.81-17.92,10.24-26.87c8.27-21.66,16.55-43.33,24.84-64.99c0.34-0.88,0.68-1.76,1.1-2.6
			c0.45-0.89,1.18-1.45,2.21-1.52c0.59-0.04,1.19-0.06,1.78-0.06c4.52,0.01,9.03,0.02,13.55,0.04c0.68,0,1.36,0.01,2.04,0.02
			c0.96,0.02,1.59,0.53,1.96,1.39c0.24,0.54,0.45,1.1,0.66,1.66c12.1,31.66,24.2,63.31,36.29,94.97c0.76,2,1.53,4,2.28,6
			c0.21,0.56,0.38,1.13,0.55,1.71c0.06,0.21-0.17,0.56-0.37,0.57c-0.42,0.03-0.84,0.1-1.27,0.1c-5.62,0.01-11.25,0.01-16.87,0.01
			c-0.43,0-0.85-0.02-1.28-0.06c-0.36-0.04-0.64-0.25-0.8-0.56c-0.2-0.38-0.36-0.78-0.51-1.17c-2.03-5.37-4.05-10.73-6.08-16.1
			c-0.3-0.8-0.61-1.6-0.93-2.39c-0.38-0.98-1.14-1.48-2.13-1.62c-0.59-0.08-1.19-0.1-1.78-0.1c-2.13,0-4.26,0.02-6.39,0.02
			c-9.88-0.01-19.77-0.02-29.65-0.02c-0.77,0-1.54-0.02-2.3,0.06c-1.19,0.13-2.07,0.72-2.52,1.89c-0.18,0.48-0.37,0.95-0.56,1.43
			c-2.05,5.27-4.1,10.53-6.16,15.79c-0.22,0.56-0.45,1.11-0.75,1.63c-0.4,0.7-1.03,1.14-1.86,1.18c-0.77,0.02-1.53,0.02-2.3,0.02
			c-5.37,0-10.74-0.02-16.1-0.01c-0.6,0-1.19,0.05-1.79,0.08V-6484.71z M-2491.24-6525.35c3.49,0,6.97,0.01,10.46,0
			c0.76,0,1.53-0.02,2.29-0.06c0.63-0.02,0.97-0.47,0.79-1.02c-0.22-0.65-0.46-1.29-0.7-1.93c-1.72-4.46-3.44-8.93-5.17-13.39
			c-2.25-5.82-4.49-11.64-6.75-17.45c-0.25-0.63-0.57-1.23-0.87-1.84c-0.1-0.21-0.54-0.22-0.63-0.03c-0.35,0.78-0.74,1.53-1.05,2.33
			c-1.9,4.85-3.78,9.71-5.66,14.57c-1.98,5.09-3.97,10.19-5.95,15.28c-0.25,0.64-0.49,1.28-0.69,1.93c-0.24,0.74,0.19,1.44,0.93,1.5
			c0.76,0.06,1.53,0.09,2.29,0.1C-2498.38-6525.34-2494.81-6525.35-2491.24-6525.35z"/>
	</defs>
	<clipPath id="SVGID_42_">
		<use xlink:href="#SVGID_41_"  style="overflow:visible;"/>
	</clipPath>
	<g class="st20">
		<defs>
			<rect id="SVGID_43_" x="-3974.22" y="-7215.37" width="10231.11" height="16801.4"/>
		</defs>
		<clipPath id="SVGID_44_">
			<use xlink:href="#SVGID_43_"  style="overflow:visible;"/>
		</clipPath>
		<rect x="-2583.43" y="-6630.2" class="st21" width="182.35" height="186.49"/>
	</g>
</g>
<g>
	<defs>
		<path id="SVGID_45_" d="M-2428.84-6536.1c0-12.93,0-25.86,0-38.79c0-3.8-0.05-7.59-0.04-11.38c0-0.85,0.1-1.72,0.21-2.57
			c0.09-0.63,0.57-1.05,1.24-1.12c0.59-0.07,1.19-0.12,1.79-0.11c7.61,0.05,15.23,0.14,22.84,0.14c4.8-0.01,9.58,0.23,14.35,0.64
			c6,0.51,11.8,1.96,17.25,4.63c6.68,3.27,12.13,8,16.4,14.12c3.48,4.98,5.94,10.45,7.61,16.29c1.04,3.64,1.74,7.36,2.24,11.13
			c0.62,4.72,0.74,9.47,0.31,14.2c-1.01,11.25-4.81,21.47-11.86,30.33c-6,7.55-13.83,12.18-23.22,14.13
			c-2.94,0.62-5.9,0.88-8.9,1.09c-7.86,0.57-15.73,0.41-23.6,0.44c-4.45,0.02-8.9,0.01-13.35,0.01c-0.68,0-1.37,0-2.05-0.03
			c-0.64-0.03-1.09-0.48-1.13-1.17c-0.06-0.86-0.08-1.72-0.08-2.58C-2428.84-6503.17-2428.84-6519.64-2428.84-6536.1
			 M-2408.92-6536.5L-2408.92-6536.5c0,10.01,0,20.01,0,30.01c0,0.78,0.01,1.55,0.08,2.32c0.08,0.89,0.79,1.6,1.69,1.66
			c0.68,0.05,1.37,0.05,2.05,0.03c4.62-0.16,9.24-0.29,13.86-0.49c3-0.13,5.95-0.67,8.8-1.65c5.74-1.98,10.16-5.61,13.08-11
			c0.7-1.28,1.31-2.61,1.84-3.98c1.55-4.05,2.36-8.28,2.56-12.6c0.1-2.33,0.09-4.66-0.02-6.99c-0.15-3.19-0.59-6.35-1.49-9.42
			c-2.58-8.81-7.99-15.1-16.4-18.7c-1.33-0.58-2.71-1.07-4.1-1.48c-3.38-0.98-6.85-1.48-10.37-1.59c-2.74-0.08-5.48-0.09-8.22-0.12
			c-0.43-0.01-0.86,0-1.28,0.02c-1.26,0.09-1.91,0.69-2.01,1.9c-0.06,0.69-0.06,1.38-0.06,2.07
			C-2408.92-6556.51-2408.92-6546.5-2408.92-6536.5"/>
	</defs>
	<clipPath id="SVGID_46_">
		<use xlink:href="#SVGID_45_"  style="overflow:visible;"/>
	</clipPath>
	<g class="st22">
		<defs>
			<rect id="SVGID_47_" x="-3974.22" y="-7215.37" width="10231.11" height="16801.4"/>
		</defs>
		<clipPath id="SVGID_48_">
			<use xlink:href="#SVGID_47_"  style="overflow:visible;"/>
		</clipPath>
		<rect x="-2468.85" y="-6630.04" class="st23" width="164.42" height="187.08"/>
	</g>
</g>
<g>
	<defs>
		<path id="SVGID_49_" d="M-2294.88-6514.74c0.5-0.24,0.69-0.62,0.84-1.02c0.68-1.86,1.35-3.72,2.02-5.59
			c7.77-21.73,15.54-43.47,23.31-65.2c0.26-0.73,0.52-1.46,0.85-2.16c0.35-0.75,0.94-1.22,1.79-1.28c0.52-0.03,1.03-0.06,1.54-0.06
			c4.98-0.01,9.97-0.01,14.95,0c0.6,0.01,1.2,0.09,1.79,0.15c0.28,0.03,0.58,0.46,0.59,0.74c0.04,0.62-0.18,1.17-0.39,1.75
			c-1.18,3.24-2.35,6.47-3.51,9.72c-10.31,28.69-20.62,57.38-30.93,86.07c-0.61,1.71-1.2,3.41-1.8,5.12
			c-0.23,0.65-0.46,1.3-0.73,1.93c-0.44,1.05-1.19,1.66-2.37,1.65c-5.41,0-10.83-0.01-16.24,0c-0.98,0-1.63-0.48-2.02-1.33
			c-0.28-0.62-0.49-1.29-0.72-1.93c-6.31-17.86-12.61-35.74-18.92-53.6c-5.48-15.51-10.97-31.01-16.45-46.53
			c-0.31-0.89-0.54-1.81-0.78-2.73c-0.11-0.42,0.26-0.87,0.7-0.92c0.51-0.04,1.02-0.09,1.54-0.09c4.98-0.02,9.97-0.02,14.95-0.02
			c0.6,0,1.2,0.05,1.8,0.1c0.74,0.07,1.3,0.5,1.63,1.13c0.39,0.77,0.72,1.57,1,2.37c1.38,3.89,2.74,7.8,4.12,11.7
			c6.76,19.17,13.52,38.33,20.28,57.51c0.2,0.57,0.4,1.14,0.64,1.69C-2295.28-6515.27-2295.06-6515.01-2294.88-6514.74"/>
	</defs>
	<clipPath id="SVGID_50_">
		<use xlink:href="#SVGID_49_"  style="overflow:visible;"/>
	</clipPath>
	<g class="st24">
		<defs>
			<rect id="SVGID_51_" x="-3974.22" y="-7215.37" width="10231.11" height="16801.4"/>
		</defs>
		<clipPath id="SVGID_52_">
			<use xlink:href="#SVGID_51_"  style="overflow:visible;"/>
		</clipPath>
		<rect x="-2382.05" y="-6630.04" class="st25" width="174.83" height="187.08"/>
	</g>
</g>
<g>
	<defs>
		<path id="SVGID_53_" d="M-1961.66-6524.84v0.04c3.68,0,7.36,0.01,11.05-0.01c0.77-0.01,1.53-0.09,2.29-0.18
			c0.52-0.06,0.85-0.63,0.83-1.14c-0.05-0.8-0.41-1.49-0.69-2.21c-3.16-8.19-6.34-16.37-9.51-24.56c-0.9-2.33-1.79-4.65-2.71-6.98
			c-0.12-0.3-0.32-0.59-0.54-0.85c-0.07-0.08-0.39-0.08-0.43-0.01c-0.27,0.42-0.54,0.87-0.73,1.34c-1.63,4.16-3.23,8.35-4.85,12.51
			c-2.43,6.26-4.87,12.51-7.3,18.77c-0.28,0.72-0.54,1.45-0.79,2.18c-0.18,0.54,0.17,1.01,0.79,1.04c0.68,0.03,1.37,0.05,2.05,0.05
			C-1968.69-6524.84-1965.17-6524.84-1961.66-6524.84z M-1920.43-6482.94c-2.91,0-5.82-0.05-8.73,0.02
			c-1.31,0.03-2.08-0.49-2.52-1.7c-1-2.75-2.07-5.47-3.09-8.21c-1.05-2.82-2.08-5.65-3.12-8.47c-0.24-0.65-0.48-1.29-0.74-1.93
			c-0.44-1.05-1.28-1.61-2.36-1.75c-0.76-0.1-1.54-0.1-2.31-0.1c-4.19,0.01-8.39,0.04-12.58,0.04c-7.7,0-15.41-0.03-23.11-0.04
			c-0.77,0-1.55-0.01-2.31,0.08c-1.09,0.12-1.92,0.69-2.37,1.73c-0.21,0.47-0.39,0.96-0.57,1.44c-2.08,5.37-4.16,10.74-6.25,16.12
			c-0.21,0.56-0.44,1.12-0.71,1.65c-0.32,0.65-0.82,1.09-1.6,1.09c-0.34,0-0.69,0.02-1.03,0.02c-5.56-0.01-11.13-0.01-16.69-0.02
			c-0.34,0-0.69-0.02-1.03-0.03c-0.54-0.02-0.81-0.34-0.65-0.8c0.23-0.65,0.46-1.29,0.7-1.93c3.52-9.24,7.03-18.49,10.57-27.73
			c9.22-24.09,18.44-48.18,27.67-72.28c0.37-0.96,0.74-1.93,1.19-2.85c0.4-0.82,1.09-1.32,2.02-1.39c0.6-0.05,1.2-0.1,1.79-0.1
			c4.71,0,9.42,0.02,14.12,0.04c0.68,0,1.37,0.03,2.05,0.08c0.76,0.06,1.28,0.5,1.57,1.16c0.39,0.86,0.73,1.74,1.07,2.63
			c5.31,13.9,10.61,27.8,15.91,41.7c7.33,19.2,14.66,38.41,21.99,57.61c0.4,1.05,0.75,2.1,1.11,3.16c0.12,0.34-0.15,0.7-0.51,0.7
			c-1.11,0.02-2.23,0.04-3.34,0.05c-2.05,0.01-4.11,0-6.16,0V-6482.94z M-2068.2-6480.59c-0.41-0.38-0.92-0.42-1.43-0.48
			c-1.94-0.23-3.9-0.42-5.83-0.7c-14.46-2.08-26.41-8.58-35.42-20.32c-5.41-7.07-8.83-15-10.29-23.78
			c-0.39-2.36-0.66-4.75-0.72-7.15c-0.07-3.25-0.13-6.51,0.15-9.76c1.3-15.17,7.61-27.75,19.44-37.38
			c7.14-5.8,15.26-9.58,24.24-11.52c4.27-0.93,8.58-1.39,12.93-1.33c10.3,0.18,20.06,2.47,29.09,7.59
			c5.6,3.18,10.59,7.16,15.05,11.82c0.41,0.42,0.74,0.94,1.06,1.44c0.18,0.3,0.15,0.66-0.03,0.98c-0.13,0.22-0.25,0.46-0.43,0.64
			c-0.35,0.38-0.73,0.72-1.1,1.07c-3.15,3.01-6.29,6.03-9.44,9.03c-0.49,0.47-0.99,0.94-1.51,1.38c-0.41,0.34-1.25,0.33-1.68-0.03
			c-0.52-0.44-1.03-0.9-1.52-1.37c-2.29-2.18-4.73-4.19-7.36-5.95c-5.18-3.47-10.84-5.75-16.98-6.69c-3.11-0.47-6.24-0.61-9.42-0.28
			c-4.63,0.48-9.05,1.63-13.17,3.78c-10.08,5.28-16.28,13.52-18.51,24.75c-0.59,2.95-0.92,5.93-0.85,8.94
			c0.1,4.3,0.73,8.53,2.21,12.59c3.04,8.33,8.52,14.52,16.33,18.62c3.57,1.88,7.36,3.08,11.34,3.75c3.9,0.66,7.82,0.66,11.71,0.26
			c4.34-0.44,8.48-1.76,12.39-3.78c3.2-1.65,6.14-3.68,8.88-6.01c1.23-1.05,2.41-2.18,3.61-3.27c0.38-0.34,0.75-0.7,1.15-1.01
			c0.51-0.4,1.44-0.37,1.91,0.06c0.38,0.34,0.74,0.7,1.1,1.07c3.19,3.34,6.37,6.67,9.55,10.02c0.41,0.44,0.83,0.86,1.22,1.32
			c0.49,0.57,0.44,1.25-0.1,1.84c-0.17,0.19-0.35,0.38-0.54,0.55c-4.12,3.87-8.46,7.44-13.24,10.46c-3.99,2.51-8.19,4.55-12.7,5.93
			c-2.94,0.9-5.92,1.53-8.98,1.87c-1.43,0.16-2.86,0.45-4.28,0.71c-0.24,0.04-0.44,0.23-0.67,0.36H-2068.2z M-2195.14-6480.59
			c-0.5-0.39-1.1-0.42-1.69-0.5c-2.1-0.33-4.21-0.6-6.3-1.01c-8.09-1.59-15.39-4.96-21.85-10.06c-11.02-8.69-17.93-19.98-20.8-33.79
			c-1.13-5.43-1.34-10.9-0.8-16.37c2.3-23.05,17.08-39.92,34.9-46.94c3.9-1.53,7.92-2.61,12.05-3.25c3.88-0.61,7.8-0.83,11.72-0.53
			c11.64,0.89,22.02,5.04,30.97,12.59c10.15,8.56,16.57,19.42,19.33,32.44c0.98,4.62,1.35,9.32,1.09,14.05
			c-1.3,23.66-16.15,41.45-33.74,48.86c-4.02,1.69-8.16,2.93-12.5,3.49c-1.27,0.16-2.52,0.39-3.78,0.62
			c-0.32,0.06-0.62,0.26-0.93,0.39H-2195.14z M-2226.55-6536.69c-0.1,3.75,0.47,7.72,1.71,11.58c2.96,9.22,8.6,16.24,17.2,20.73
			c4.83,2.52,10.01,3.74,15.47,3.84c4.66,0.1,9.14-0.69,13.47-2.41c12.18-4.87,20.86-16.6,21.98-30.63c0.26-3.25,0.16-6.49-0.4-9.73
			c-1.04-6.02-3.31-11.49-7.05-16.31c-6.25-8.05-14.51-12.5-24.58-13.52c-3.74-0.38-7.47-0.05-11.15,0.84
			c-10.11,2.44-17.59,8.3-22.47,17.5C-2225.32-6549.25-2226.63-6543.28-2226.55-6536.69z"/>
	</defs>
	<clipPath id="SVGID_54_">
		<use xlink:href="#SVGID_53_"  style="overflow:visible;"/>
	</clipPath>
	<g class="st26">
		<defs>
			<rect id="SVGID_55_" x="-3974.22" y="-7215.37" width="10231.11" height="16801.4"/>
		</defs>
		<clipPath id="SVGID_56_">
			<use xlink:href="#SVGID_55_"  style="overflow:visible;"/>
		</clipPath>
		<rect x="-2286.83" y="-6633.14" class="st27" width="416.4" height="192.51"/>
	</g>
</g>
<g>
	<defs>
		<path id="SVGID_57_" d="M-1892.52-6526.33v-39.59c0-0.94,0.05-1.89-0.23-2.82c-0.22-0.73-0.7-1.2-1.41-1.36
			c-0.58-0.13-1.19-0.18-1.79-0.18c-4.13,0-8.27,0.03-12.4,0.04c-0.77,0-1.54-0.08-2.31-0.15c-0.39-0.04-0.77-0.5-0.81-0.9
			c-0.03-0.34-0.07-0.69-0.07-1.03c-0.01-5.17-0.01-10.34,0-15.52c0-0.43,0.05-0.86,0.12-1.28c0.06-0.36,0.3-0.6,0.65-0.73
			c0.75-0.27,1.53-0.22,2.3-0.22c3.19,0.01,6.37,0.02,9.56,0.02c13.43-0.01,26.87-0.02,40.3-0.02c1.2,0,2.41-0.02,3.62,0.02
			c0.51,0.01,1.02,0.1,1.53,0.19c0.36,0.07,0.6,0.34,0.71,0.68c0.1,0.33,0.2,0.67,0.22,1.01c0.03,0.6,0,1.21,0,1.81
			c0,4.23,0.01,8.45,0,12.68c0,0.77-0.04,1.55-0.12,2.31c-0.05,0.51-0.54,0.98-1.02,1.04c-0.6,0.06-1.2,0.12-1.8,0.11
			c-4.3-0.05-8.61,0.18-12.92-0.08c-0.51-0.02-1.04,0-1.54,0.08c-1.15,0.18-1.9,0.93-2,2.05c-0.08,0.85-0.09,1.73-0.09,2.58
			c0,8.03,0.01,16.04,0.02,24.07c0.02,18.02,0.03,36.05,0.04,54.07c0,0.77,0.02,1.55-0.04,2.33c-0.03,0.42-0.16,0.85-0.32,1.23
			c-0.21,0.5-0.6,0.86-1.16,0.91c-0.51,0.06-1.03,0.07-1.55,0.07c-4.91,0-9.82-0.02-14.73,0c-2.39,0.01-2.86-0.26-2.88-2.79
			c-0.01-2.25,0.04-4.48,0.04-6.73c0-11.29,0-22.6,0-33.89H-1892.52z"/>
	</defs>
	<clipPath id="SVGID_58_">
		<use xlink:href="#SVGID_57_"  style="overflow:visible;"/>
	</clipPath>
	<g class="st28">
		<defs>
			<rect id="SVGID_59_" x="-3974.22" y="-7215.37" width="10231.11" height="16801.4"/>
		</defs>
		<clipPath id="SVGID_60_">
			<use xlink:href="#SVGID_59_"  style="overflow:visible;"/>
		</clipPath>
		<rect x="-1951.51" y="-6630.04" class="st29" width="138.96" height="187.08"/>
	</g>
</g>
<g>
	<defs>
		<path id="SVGID_61_" d="M-1777.14-6484.2c-0.4,0.14-0.78,0.37-1.19,0.42c-0.67,0.07-1.36,0.03-2.04,0.03
			c-16.78,0.01-33.56,0.01-50.34,0.01c-0.85,0-1.7-0.02-2.55-0.06c-0.58-0.02-1.12-0.51-1.23-1.13c-0.11-0.58-0.18-1.18-0.18-1.78
			c-0.01-2.31,0-4.62,0.01-6.94c0.02-11.39,0.05-22.79,0.07-34.18c0.01-9.42,0.03-18.85,0.02-28.27c-0.01-9.51-0.07-19.02-0.1-28.53
			c0-1.03-0.03-2.06,0.02-3.09c0.03-0.5,0.16-1.02,0.31-1.49c0.13-0.42,0.44-0.78,0.9-0.83c0.84-0.1,1.69-0.2,2.53-0.21
			c2.98-0.01,5.96,0.04,8.94,0.04c13.54-0.01,27.08-0.02,40.63-0.03c0.85,0,1.7,0,2.55,0.03c0.61,0.02,1.17,0.2,1.66,0.58v18.52
			c-0.39,0.16-0.77,0.4-1.17,0.45c-0.67,0.09-1.36,0.06-2.04,0.06c-10.03-0.02-20.07-0.03-30.11-0.05c-0.59,0-1.19-0.01-1.78,0.02
			c-0.34,0.01-0.68,0.06-1.01,0.14c-0.77,0.18-1.35,0.81-1.43,1.61c-0.06,0.6-0.09,1.19-0.07,1.79c0.13,4.28,0.18,8.55-0.04,12.83
			c-0.03,0.69-0.03,1.38,0.22,2.02c0.12,0.3,0.36,0.6,0.63,0.77c0.35,0.22,0.77,0.38,1.18,0.42c0.67,0.08,1.36,0.06,2.04,0.06
			c10.03-0.02,20.07-0.03,30.1-0.05c0.68,0,1.36,0.02,2.04,0.02c0.53,0,0.98,0.24,1.44,0.48v18.51c-1.04,0.46-2.15,0.4-3.25,0.39
			c-10.12-0.01-20.24-0.03-30.37-0.04c-0.76,0-1.53,0.02-2.29,0.07c-0.83,0.06-1.46,0.63-1.57,1.44c-0.1,0.75-0.17,1.53-0.16,2.29
			c0.16,6.84,0.15,13.68,0.01,20.53c-0.01,0.68,0.01,1.37,0.08,2.05c0.1,0.99,0.69,1.58,1.63,1.65c0.68,0.05,1.36,0.06,2.04,0.06
			c8.34-0.01,16.67-0.02,25.01-0.02c2.13-0.01,4.25,0.01,6.38-0.02c0.86-0.02,1.69,0.08,2.49,0.41V-6484.2z"/>
	</defs>
	<clipPath id="SVGID_62_">
		<use xlink:href="#SVGID_61_"  style="overflow:visible;"/>
	</clipPath>
	<g class="st30">
		<defs>
			<rect id="SVGID_63_" x="-3974.22" y="-7215.37" width="10231.11" height="16801.4"/>
		</defs>
		<clipPath id="SVGID_64_">
			<use xlink:href="#SVGID_63_"  style="overflow:visible;"/>
		</clipPath>
		<rect x="-1874.66" y="-6630.22" class="st31" width="137.48" height="186.44"/>
	</g>
</g>
<g>
	<defs>
		<path id="SVGID_65_" d="M-1963.19-7058.47c0.13,0.13,0.23,0.33,0.38,0.36c1.12,0.28,2.23,0.62,3.36,0.77
			c2.11,0.26,4.24,0.37,6.36,0.58c1.68,0.18,3.35,0.37,5.01,0.65c5.16,0.87,10.3,1.81,15.41,2.99c16.35,3.78,31.92,9.65,46.72,17.6
			c12.75,6.86,24.52,15.16,35.53,24.59c13.76,11.78,25.93,25.03,36.28,39.96c11.55,16.64,20.35,34.68,26.66,53.96
			c3.18,9.71,5.69,19.61,7.6,29.65c0.99,5.2,1.78,10.43,2.41,15.68c0.35,2.93,0.49,5.9,0.76,8.84c0.66,7.26,0.51,14.52,0.47,21.79
			c-0.02,3.96-0.44,7.89-0.61,11.83c-0.01,0.25-0.15,0.5-0.26,0.73c-0.1,0.21-0.27,0.21-0.46,0.09c-0.48-0.3-0.69-0.82-0.95-1.27
			c-1.82-3.18-3.64-6.36-5.44-9.56c-11.98-21.18-23.94-42.37-35.94-63.54c-1.86-3.28-3.5-6.65-4.84-10.17
			c-0.06-0.16-0.15-0.32-0.21-0.49c-2.93-8.32-7.02-16.07-11.43-23.66c-7.09-12.19-15.32-23.52-24.98-33.77
			c-18.38-19.49-40.3-33.27-65.7-41.4c-7.19-2.31-14.5-4.15-21.93-5.47c-3.49-0.62-6.99-1.18-10.52-1.62
			c-4.41-0.54-8.82-0.97-13.26-1.07c-1.6-0.04-3.19-0.18-4.79-0.22c-4.62-0.12-9.24,0.17-13.84,0.48c-3.8,0.26-7.58,0.78-11.36,1.36
			c-12.52,1.94-24.56,5.52-36.17,10.61c-10.96,4.8-21.21,10.84-30.85,17.95c-12.83,9.46-24.42,20.26-34.46,32.72
			c-13.91,17.26-23.93,36.61-30.1,57.98c-2.12,7.33-3.76,14.75-4.91,22.29c-0.63,4.17-1.14,8.35-1.59,12.54
			c-0.85,8.05-1.06,16.11-0.93,24.2c0.07,4.67,0.45,9.31,0.9,13.96c0.4,4.11,0.97,8.18,1.67,12.25c1.43,8.42,3.52,16.65,6.24,24.73
			c4.18,12.46,9.76,24.24,16.71,35.36c10.23,16.35,22.53,30.89,37.15,43.39c16.27,13.91,34.62,24,55.06,30.16
			c5.7,1.72,11.47,3.12,17.33,4.15c3.58,0.63,7.18,1.16,10.78,1.63c2.64,0.34,5.31,0.37,7.95,0.81c0.35,0.06,0.7,0.06,1.06,0.07
			c7.28,0.33,14.56,0.41,21.83-0.02c2.74-0.16,5.48-0.42,8.21-0.81c2.64-0.37,5.27-0.72,7.9-1.16c5.95-1.01,11.81-2.43,17.59-4.17
			c17.09-5.15,32.75-13.23,47.22-23.69c7.23-5.23,14.1-10.91,20.47-17.19c8.1-7.99,15.22-16.8,21.54-26.28
			c0.5-0.74,1-1.48,1.48-2.24c1.26-1.97,1.35-1.79,2.5,0.18c0.41,0.7,0.8,1.4,1.19,2.1c4.63,8.17,9.27,16.35,13.9,24.52
			c0.62,1.09,1.25,2.17,1.88,3.25c0.26,0.46,0.51,0.94,0.76,1.41c0.67,1.24,0.55,2.41-0.25,3.54c-0.26,0.37-0.53,0.72-0.81,1.07
			c-11.38,14.35-24.16,27.26-38.72,38.33c-19.29,14.67-40.56,25.28-63.82,31.82c-6.16,1.73-12.37,3.16-18.65,4.33
			c-4.1,0.76-8.23,1.36-12.35,1.93c-2.63,0.35-5.3,0.46-7.95,0.73c-7.8,0.78-15.61,0.63-23.42,0.46c-1.77-0.04-3.54-0.22-5.31-0.34
			c-0.35-0.02-0.71-0.07-1.06-0.1c-4.61-0.26-9.17-0.9-13.74-1.59c-7.29-1.1-14.47-2.71-21.56-4.7
			c-13.99-3.94-27.33-9.49-40.14-16.37c-18.08-9.71-34.4-21.83-48.79-36.57c-12.1-12.41-22.38-26.19-31.09-41.2
			c-3.59-6.19-6.87-12.56-9.92-19.05c-0.38-0.81-0.79-1.6-1.21-2.39c-0.12-0.22-0.35-0.46-0.65-0.34c-0.22,0.09-0.46,0.26-0.57,0.47
			c-0.41,0.79-0.78,1.61-1.16,2.42c-11.04,24.03-26.07,45.22-44.7,63.79c-22.56,22.48-49.12,38.16-79.47,47.3
			c-7.23,2.17-14.56,3.93-21.97,5.33c-3.83,0.73-7.69,1.36-11.56,1.83c-3.44,0.42-6.87,0.78-10.32,1.09
			c-6.74,0.61-13.48,0.65-20.23,0.54c-1.69-0.03-3.37-0.06-5.06-0.14c-1.51-0.07-3.01-0.21-4.51-0.32
			c-0.35-0.03-0.71-0.09-1.06-0.11c-3.28-0.16-6.53-0.62-9.79-1.06c-4.13-0.56-8.23-1.3-12.31-2.14c-9.14-1.9-18.06-4.55-26.79-7.87
			c-12.83-4.88-24.99-11.14-36.54-18.6c-16.39-10.59-31.27-23.01-44.38-37.57c-16.86-18.74-29.69-39.97-38.59-63.63
			c-4.2-11.17-7.42-22.63-9.78-34.34c-1.19-5.89-2.17-11.81-2.94-17.77c-0.57-4.45-0.98-8.91-1.32-13.39
			c-0.67-8.79-0.64-17.57-0.4-26.36c0.11-3.95,0.48-7.88,0.86-11.8c0.32-3.21,0.72-6.42,1.17-9.61c0.77-5.42,1.79-10.79,3.01-16.12
			c6.01-26.27,16.93-50.35,31.92-72.58c7.67-11.38,16.25-22,25.91-31.71c18.7-18.78,40.32-33.06,64.78-42.96
			c9.65-3.9,19.53-7.07,29.64-9.48c4.14-0.99,8.31-1.84,12.53-2.43c3.34-0.46,6.67-0.98,10.01-1.41c1.67-0.22,3.36-0.28,5.04-0.44
			c0.35-0.03,0.72-0.1,1.02-0.26c0.2-0.1,0.31-0.39,0.46-0.6h3.2c1.24,0.63,2.49,0.65,3.73,0h14.92c1.07,0.61,2.13,0.68,3.2,0h2.13
			c0.82,0.37,1.69,0.56,2.59,0.58c2.4,0.05,4.78,0.38,7.17,0.48c3.65,0.14,7.24,0.69,10.82,1.33c6.81,1.21,13.54,2.78,20.18,4.74
			c14.95,4.41,29.29,10.31,42.8,18.17c27.94,16.23,50.89,37.91,68.81,64.99c6.12,9.24,11.81,18.75,16.16,29.01
			c0.28,0.66,0.63,1.29,0.96,1.92c0.15,0.28,0.75,0.27,0.92-0.02c0.13-0.23,0.27-0.45,0.39-0.7c0.83-1.69,1.66-3.37,2.47-5.06
			c8.42-17.65,19.15-33.74,32.08-48.31c22.95-25.87,50.52-44.87,82.96-56.53c8.78-3.15,17.76-5.59,26.91-7.37
			c3.31-0.64,6.62-1.21,9.95-1.72c3.07-0.46,6.14-0.9,9.26-0.87c0.71,0,1.42-0.02,2.13-0.04c0.98-0.03,1.94-0.19,2.85-0.6h3.2
			c1.06,0.66,2.13,0.6,3.2,0h14.39c1.24,0.64,2.49,0.62,3.73,0H-1963.19z M-2215.16-6847.86c-0.1-1.89-0.25-4.48-0.36-7.08
			c-0.2-5.03-0.84-10.01-1.65-14.96c-1.57-9.59-4.17-18.89-7.81-27.88c-5.9-14.56-13.93-27.82-24.05-39.77
			c-14.79-17.46-33.02-29.73-54.7-36.73c-10.61-3.43-21.47-5.49-32.58-6.28c-0.53-0.04-1.06-0.07-1.59-0.14
			c-2.65-0.37-5.32-0.43-7.97-0.14c-3.44,0.37-6.92,0.28-10.35,0.83c-1.92,0.31-3.88,0.4-5.8,0.75c-3.92,0.71-7.83,1.53-11.69,2.54
			c-11.48,3.03-22.36,7.54-32.54,13.72c-8.41,5.11-16.09,11.17-23.02,18.18c-10.16,10.28-18.78,21.74-25.54,34.59
			c-6.04,11.48-10.28,23.6-12.62,36.4c-0.7,3.79-1.23,7.6-1.62,11.44c-0.52,5.19-0.79,10.38-0.69,15.58
			c0.11,5.92,0.47,11.82,1.23,17.7c0.68,5.25,1.55,10.46,2.74,15.61c3.62,15.62,9.87,30.09,18.9,43.3
			c9.69,14.19,21.71,26.03,35.75,35.79c7.85,5.47,16.23,9.94,25.15,13.34c9.08,3.47,18.44,5.79,28.1,6.84
			c5.21,0.56,10.43,0.97,15.67,0.87c2.22-0.04,4.43-0.26,6.65-0.34c3.55-0.13,7.07-0.56,10.59-1.04c3.96-0.54,7.87-1.29,11.76-2.2
			c12.1-2.84,23.48-7.5,34.12-13.99c10.8-6.59,20.3-14.76,28.72-24.22c14.74-16.57,25.01-35.6,30.64-57.16
			c1.74-6.69,2.98-13.47,3.7-20.34C-2215.55-6837.47-2215.31-6842.3-2215.16-6847.86z"/>
	</defs>
	<clipPath id="SVGID_66_">
		<use xlink:href="#SVGID_65_"  style="overflow:visible;"/>
	</clipPath>
	<g class="st32">
		<defs>
			<rect id="SVGID_67_" x="-3974.22" y="-7215.37" width="10231.11" height="16801.4"/>
		</defs>
		<clipPath id="SVGID_68_">
			<use xlink:href="#SVGID_67_"  style="overflow:visible;"/>
		</clipPath>
		<rect x="-2583.43" y="-7098.43" class="st33" width="847.2" height="502.69"/>
	</g>
</g>
<g>
	<defs>
		<path id="SVGID_69_" d="M-1801.62-6745.41c-0.2-0.18-0.44-0.31-0.57-0.53c-0.43-0.68-0.81-1.39-1.21-2.09
			c-15.08-26.72-30.15-53.45-45.24-80.16c-0.48-0.85-0.83-1.8-1.57-2.48c-0.06-0.05-0.18-0.1-0.24-0.08
			c-0.14,0.05-0.36,0.13-0.39,0.24c-0.21,0.87-0.4,1.75-0.57,2.63c-0.14,0.7-0.26,1.41-0.37,2.12c-1.08,7.39-3.16,14.53-5.5,21.6
			c-3.76,11.36-8.65,22.18-14.99,32.32c-10,15.96-22.91,28.93-38.93,38.7c-9.23,5.63-19.05,9.92-29.33,13.17
			c-5.5,1.74-11.08,3.17-16.75,4.22c-3.05,0.56-6.12,0.97-9.21,1.33c-7.17,0.82-14.35,0.77-21.52,0.34
			c-2.47-0.14-4.93-0.52-7.39-0.87c-4.13-0.6-8.2-1.46-12.23-2.53c-9.82-2.62-19.13-6.52-27.95-11.61
			c-14.16-8.15-26.66-18.37-37.29-30.89c-11.56-13.6-19.8-29.04-24.87-46.22c-1.98-6.71-3.39-13.55-4.4-20.48
			c-1.45-9.98-1.81-20.01-1.41-30.07c0.13-3.22,0.46-6.43,0.85-9.65c0.42-3.48,0.97-6.92,1.65-10.35
			c2.51-12.77,6.91-24.84,13.13-36.23c6-10.98,13.47-20.86,22.12-29.85c7.33-7.61,15.34-14.39,24.22-20.1
			c10.17-6.55,21.06-11.46,32.73-14.52c4.12-1.08,8.28-1.95,12.49-2.55c3.78-0.53,7.56-0.99,11.38-1.09
			c0.98-0.02,1.95-0.14,2.92-0.15c2.22-0.02,4.43-0.04,6.65,0c1.51,0.02,3.01,0.17,4.52,0.22c3.37,0.1,6.71,0.53,10.05,0.97
			c3.43,0.43,6.83,1.02,10.22,1.72c28.45,5.92,51.93,20.08,69.98,43.21c4.79,6.15,8.96,12.7,12.65,19.57
			c8.81,16.39,17.82,32.67,26.94,48.89c11.7,20.82,23.45,41.61,35.14,62.44c5.17,9.2,10.26,18.45,15.38,27.69
			c0.39,0.69,0.77,1.41,1.14,2.13c0.25,0.5,0.26,1.04,0.07,1.57c-0.19,0.5-0.41,0.99-0.62,1.49c-3.5,7.95-6.99,15.9-10.5,23.84
			C-1800.75-6746.79-1800.91-6745.96-1801.62-6745.41 M-1978.26-6953.71c-2.15,0.03-5.59,0.08-9.04,0.48
			c-3.88,0.44-7.73,1.05-11.53,1.94c-10.72,2.52-20.7,6.83-30.01,12.75c-28.43,18.1-46.78,49.48-48.79,84.89
			c-0.33,5.93-0.05,11.85,0.6,17.74c0.45,4.09,1.09,8.17,1.95,12.21c2.21,10.33,5.78,20.14,10.91,29.36
			c5.89,10.59,13.47,19.78,22.42,27.84c10.97,9.88,23.48,16.95,37.57,21.16c4.68,1.4,9.43,2.44,14.28,3.1
			c1.94,0.26,3.88,0.36,5.82,0.6c2.21,0.27,4.42,0.33,6.64,0.34c2.84,0.02,5.67-0.12,8.5-0.38c3.8-0.34,7.56-0.89,11.3-1.65
			c9.02-1.83,17.56-4.99,25.64-9.42c7.75-4.24,14.96-9.3,21.58-15.19c15.88-14.14,26.22-31.63,31.02-52.47
			c0.99-4.29,1.73-8.61,2.21-12.99c0.47-4.28,0.84-8.57,0.88-12.88c0.04-4.04-0.01-8.07-0.37-12.1c-0.36-4.03-0.88-8.02-1.64-11.98
			c-1.83-9.58-5.03-18.67-9.51-27.31c-5.07-9.77-11.57-18.48-19.16-26.37c-11.29-11.75-24.72-20.02-40.13-25.01
			c-5.07-1.64-10.25-2.81-15.52-3.61C-1967.38-6953.41-1972.15-6953.76-1978.26-6953.71"/>
	</defs>
	<clipPath id="SVGID_70_">
		<use xlink:href="#SVGID_69_"  style="overflow:visible;"/>
	</clipPath>
	<g class="st34">
		<defs>
			<rect id="SVGID_71_" x="-3974.22" y="-7215.37" width="10231.11" height="16801.4"/>
		</defs>
		<clipPath id="SVGID_72_">
			<use xlink:href="#SVGID_71_"  style="overflow:visible;"/>
		</clipPath>
		<rect x="-2143.65" y="-7021.22" class="st35" width="394.44" height="347.41"/>
	</g>
</g>
</svg>
