<svg xmlns="http://www.w3.org/2000/svg" xmlns:xlink="http://www.w3.org/1999/xlink" version="1.1" x="0px" y="0px" viewBox="0 0 100 125" enable-background="new 0 0 100 100" xml:space="preserve"><g><path fill="none" d="M83.064,55.539c7.085-3.903,11.761-10.596,11.761-18.203c0-12.044-11.717-21.808-26.17-21.808   c-13.204,0-24.118,8.15-25.907,18.742c10.739,3.486,18.387,12.307,18.387,22.618c0,0.445-0.017,0.887-0.045,1.327   c2.395,0.602,4.934,0.929,7.565,0.929c2.505,0,4.925-0.3,7.219-0.847c0,0,6.317,6.562,14.138,6.562   C90.012,64.859,84.044,61.751,83.064,55.539z"/><path d="M91.124,62.725c-0.035-0.019-3.899-2.117-5.292-6.03c7.173-4.564,11.4-11.684,11.4-19.359   c0-13.352-12.819-24.215-28.576-24.215c-14.263,0-26.117,8.9-28.238,20.491c-2.499-0.607-5.133-0.939-7.859-0.939   c-15.757,0-28.576,10.863-28.576,24.215c0,7.675,4.227,14.795,11.4,19.359c-1.393,3.914-5.258,6.012-5.301,6.035   c-0.975,0.519-1.476,1.638-1.209,2.71c0.267,1.072,1.225,1.826,2.33,1.826c6.903,0,12.62-4.364,14.863-6.349   c2.133,0.421,4.311,0.633,6.494,0.633c14.263,0,26.117-8.9,28.238-20.491c2.499,0.607,5.133,0.939,7.859,0.939   c2.183,0,4.362-0.213,6.494-0.633c2.242,1.984,7.959,6.349,14.863,6.349c1.109,0,2.074-0.757,2.337-1.834   S92.107,63.237,91.124,62.725z M32.559,78.696c-2.505,0-4.925-0.3-7.219-0.847c0,0-6.317,6.562-14.138,6.562   c0,0,5.968-3.109,6.948-9.32C11.066,71.189,6.389,64.495,6.389,56.888c0-12.044,11.717-21.808,26.17-21.808   s26.17,9.764,26.17,21.808C58.729,68.933,47.012,78.696,32.559,78.696z M75.874,58.297c-2.294,0.548-4.714,0.847-7.219,0.847   c-2.631,0-5.169-0.327-7.565-0.929c0.028-0.44,0.045-0.882,0.045-1.327c0-10.311-7.648-19.132-18.387-22.618   c1.789-10.592,12.703-18.742,25.907-18.742c14.453,0,26.17,9.764,26.17,21.808c0,7.607-4.677,14.3-11.761,18.203   c0.98,6.212,6.948,9.32,6.948,9.32C82.191,64.859,75.874,58.297,75.874,58.297z"/></g><g><path d="M45.615,52.069H19.027c-0.664,0-1.203-0.539-1.203-1.203s0.539-1.203,1.203-1.203h26.588c0.664,0,1.203,0.539,1.203,1.203   S46.28,52.069,45.615,52.069z"/></g><g><path d="M45.615,57.931H19.027c-0.664,0-1.203-0.539-1.203-1.203s0.539-1.203,1.203-1.203h26.588c0.664,0,1.203,0.539,1.203,1.203   S46.28,57.931,45.615,57.931z"/></g><g><path d="M45.615,64.297H19.027c-0.664,0-1.203-0.539-1.203-1.203c0-0.664,0.539-1.203,1.203-1.203h26.588   c0.664,0,1.203,0.539,1.203,1.203C46.818,63.758,46.28,64.297,45.615,64.297z"/></g><circle cx="59.541" cy="38.345" r="2.148"/><circle cx="68.787" cy="38.345" r="2.148"/><circle cx="78.032" cy="38.345" r="2.148"/><text x="0" y="115" fill="#000000" font-size="5px" font-weight="bold" font-family="'Helvetica Neue', Helvetica, Arial-Unicode, Arial, Sans-serif">Created by gira Park</text><text x="0" y="120" fill="#000000" font-size="5px" font-weight="bold" font-family="'Helvetica Neue', Helvetica, Arial-Unicode, Arial, Sans-serif">from the Noun Project</text></svg>