<svg xmlns="http://www.w3.org/2000/svg" xmlns:xlink="http://www.w3.org/1999/xlink" version="1.1" x="0px" y="0px" viewBox="0 0 100 125" enable-background="new 0 0 100 100" xml:space="preserve"><g><path fill="#000000" d="M1621.116,4663.121c-5.132,0-9.467-2.787-11.596-7.456c-1.289-2.823-1.943-5.842-1.943-8.972   c0-11.86,9.593-21.522,21.428-21.634c3.623-9.826,12.925-16.351,23.489-16.351c12.502,0,23.071,9.322,24.791,21.525   c1.339-0.257,2.654-0.386,3.929-0.386c11.012,0,17.593,9.469,17.593,18.624c0.001,7.289-4.539,14.644-14.682,14.645   L1621.116,4663.121z M1629.213,4628.059c-10.275,0-18.636,8.359-18.636,18.635c0,2.697,0.563,5.297,1.672,7.727   c1.629,3.57,4.943,5.701,8.867,5.701l63.009-0.004c8.613-0.001,11.683-6.016,11.682-11.645c0-7.681-5.458-15.624-14.593-15.624   c-1.55,0-3.183,0.227-4.854,0.675c-0.429,0.116-0.895,0.032-1.259-0.228c-0.364-0.261-0.594-0.67-0.625-1.116   c-0.806-11.479-10.461-20.471-21.981-20.471c-9.63,0-18.067,6.158-20.996,15.324c-0.205,0.644-0.802,1.073-1.49,1.042   C1629.744,4628.064,1629.479,4628.059,1629.213,4628.059z"/></g><path d="M96.115,23.507l-1.5-2.598l-6.502,3.754L77.368,6.052l6.253-3.61l-1.5-2.598l-8.851,5.11l1.795,3.108  c-1.435,0.101-2.728,0.159-3.916,0.159c-3.562,0-6.397-0.519-11.042-1.606c-0.527-0.124-1.066-0.187-1.601-0.187  c-4.625,0-7.718,4.46-8.833,6.378c-2.138,3.676-2.821,4.869-3.502,6.059c-0.597,1.042-1.192,2.082-2.769,4.796l-2.185-1.296  L27.128,43.644h-9.604L3.897,54.299L3.9,54.303H3.885V66.49h5.528v33.666h3V66.49h57.188v33.666h3V66.49h5.533V54.303H78.12  l0.015-0.02L64.446,43.644h-2.279l4.012-6.479l-3.142-1.862l0.165-0.066c1.848-0.749,3.55-0.996,5.501-0.816  c0.368,0.033,0.743,0.051,1.124,0.051c2.75,0,5.383-0.924,7.223-2.535c0.503-0.439,0.958-0.782,1.521-1.144l7.014-4.511l1.432,2.48  L96.115,23.507z M75.134,63.49H6.885v-6.188h68.249V63.49z M63.417,46.644l9.853,7.659H8.763l9.794-7.659h6.585l-1.332,2.012h-3.059  v3h40.516v-3h-2.203l1.246-2.012H63.417z M62.019,38.186L55.619,48.52L27.51,48.501l14.635-22.099l1.776,1.054l2.687,1.831  c-1.928,1.637-2.688,4.389-1.688,6.857c0.926,2.284,3.122,3.76,5.595,3.76c0.773,0,1.53-0.147,2.25-0.439l6.778-2.747L62.019,38.186  z M76.947,28.268c-0.693,0.446-1.253,0.867-1.873,1.409c-1.301,1.14-3.214,1.793-5.247,1.793c-0.289,0-0.574-0.014-0.853-0.039  c-2.465-0.224-4.601,0.093-6.899,1.024l-10.437,4.229c-1.506,0.608-3.336-0.183-3.938-1.667c-0.626-1.545,0.122-3.311,1.666-3.938  l3.983-1.616l10.104-4.627c0.396-0.181,0.693-0.525,0.815-0.944c0.121-0.418,0.056-0.868-0.182-1.234l-0.284-0.438  c-0.941-1.459-2.413-2.346-4.142-2.495c-0.173-0.016-0.345-0.022-0.514-0.022c-1.548,0-2.931,0.609-3.999,1.762  c-0.938,1.011-1.772,2.489-2.442,3.678c-0.314,0.557-0.639,1.13-0.863,1.452c-0.451,0.27-1.658,0.814-2.327,1.045l-3.549-2.419  c1.604-2.763,2.205-3.812,2.809-4.863c0.679-1.187,1.36-2.376,3.492-6.042c1.778-3.06,4.111-4.886,6.239-4.886  c0.305,0,0.612,0.036,0.916,0.106c4.771,1.118,7.894,1.687,11.727,1.687c1.654,0,3.491-0.109,5.578-0.279l7.354,12.736  L76.947,28.268z M56.41,24.764c0.31-0.482,0.628-0.926,0.938-1.261c0.493-0.531,1.099-0.801,1.8-0.801  c0.083,0,0.167,0.003,0.253,0.011c0.342,0.03,0.652,0.115,0.93,0.255L56.41,24.764z"/><text x="0" y="115" fill="#000000" font-size="5px" font-weight="bold" font-family="'Helvetica Neue', Helvetica, Arial-Unicode, Arial, Sans-serif">Created by Nikita Kozin</text><text x="0" y="120" fill="#000000" font-size="5px" font-weight="bold" font-family="'Helvetica Neue', Helvetica, Arial-Unicode, Arial, Sans-serif">from the Noun Project</text></svg>